<?xml version="1.0" encoding="UTF-8"?><svg id="a" xmlns="http://www.w3.org/2000/svg" viewBox="0 0 506.256 432.168"><path id="b" d="M166.373,397.393c.209,0,.419-.052.576-.209.105.157.105.314.105.576.419,0,.89-.052,1.362-.209.209.105.314.209.367.367.524-.419,1.047-.419,1.623,0,.419-.471.786-.419,1.047.209.262-.628.576-.681.943-.209.052-.157.157-.262.314-.367,2.095,1.309,4.87-.052,7.175.471-.209.367-.471.576-.89.681-.367-.157-.733-.157-1.047,0-.209-.105-.367-.262-.576-.367-.157.105-.209.209-.314.367-.89-.105-1.728-.105-2.514,0-.052-.157-.157-.262-.314-.367-.157.367-.314.471-.576.367.209.314.576.471.943.471-.052.052-.105.105-.209.209.367.105.786.105,1.152,0-.209-.052-.419-.157-.576-.314.052-.052.105-.105.209-.209.419.052.786.262,1.047.576.209-.105.419-.105.681-.105-.105-.052-.157-.157-.209-.314.419.052.786.157,1.152.367.105-.052.262-.105.367-.209-.105-.524.052-.524.471,0,.052-.157.157-.262.314-.367.157.209.314.367.471.576.052-.157.209-.314.367-.367.262.209.628.367.943.367.419-.209.786-.209,1.152,0,.209-.105.314-.209.367-.367.052.628.209.681.471.209.786.209,1.623.157,2.409-.209,1.257.367,2.723-.314,3.875.367.419-.576,2.252-.524,2.723,0,.052-.157.157-.262.314-.367.262.105.524.262.786.367.157-.105.209-.209.314-.367,1.885,1.1,4.137.052,6.18.576.052-.367.209-.628.471-.786.262.314.157.628-.209.89.576-.105,1.152-.314,1.623-.681.209.105.314.209.367.367.052-.157.157-.262.314-.367.209.209.471.314.786.367.471-.157.89-.157,1.362,0l.367-.367c3.037.628,6.442.471,9.688.471.157-.419.419-.524.786-.314-.419.157-.471.367-.105.576.157-.262.314-.524.471-.786.262.209.262.471,0,.681.628-.105,1.257,0,1.833.314.105-.209.105-.367.105-.576.419,0,.681.209.89.576.367-.367.628-.367.786,0,1.047-.209,2.147-.209,3.299,0,.314.314.628.367.943.209,2.88.314,6.284,1.938,9.008.943.052.105.105.262.209.367.419-.367.89-.419,1.362-.209.314-.105.524-.314.681-.576.419.367.89.471,1.466.367v-.576c1.414.052,2.88.209,4.347.367.052-.157.157-.262.314-.367.367.105.786.262,1.152.367.314-.262.576-.262.89,0,.052-.105.105-.262.209-.367.89.262,1.781.262,2.723,0,.367.367.838.367,1.362,0,.209.471.419.471.681,0,.681.157,1.309.157,2.042,0,.209.471.314.419.314-.209,4.294-.524,8.589.419,12.674-.576,1.309.943,2.776.105,4.137,0v.576c.157-.157.262-.314.209-.576.471-.052.89.105,1.257.367,1.728-1.519,4.766.524,6.389-1.152.262.262.576.524.89.786.052-.262.105-.524.209-.786.209.209.419.419.681.576h1.833c.157-.157.262-.367.209-.576.367-.052.681.052.89.367.052-.157.209-.314.367-.367.367.157.733.367,1.047.576.209-.209.471-.419.786-.576.471.314.995.471,1.571.576-.209.157-.471.262-.786.209-.052.209,0,.419.105.576.419-.314.89-.524,1.466-.576-.157.628,5.185,1.676,5.446.367.262-.052.995-.157,1.152-.367.367.471.733.471,1.152,0,.419.471.786.471,1.152,0,.157.052.262.157.367.314,1.728.786,7.437-.733,7.541.471,3.247-1.152,7.07.367,10.422-.314.105-.157.209-.314.367-.471.262.314.157.524-.209.681.419.105.838,0,1.152-.314,1.833.733,3.823.052,5.813.367.419-.367.89-.419,1.362-.209.995,0,2.252-.367,3.299.105-3.247-.209-.314,1.257,1.047.681.367.471.733.471,1.047,0,.209.052.209.157,0,.314,1.99.419,4.085.209,5.97.314,0,.209-.052.419-.209.576.262-.052.471.052.681.209l.314-.314c-.262-.105-.367-.262-.367-.471.576-.052.786.105.576.576.052.157.157.262.314.367.262,0,.576-.052.89-.209.052.105.105.262.209.367,1.623-.471,3.456.209,5.132.367.209-.262.367-.262.576,0,.209-.367.524-.471.89-.209-.105.157-.209.209-.367.314.419.105.786.262,1.152.471.995-.052,1.99-.052,2.985,0,.052-.157.157-.262.314-.367.786.419,1.519.419,2.2,0,.262.105.471.209.681.367.367-.052.786-.105,1.152-.209.262.524.524.524.786,0,.471.209.89.314,1.362.209,1.362.419,2.671.262,4.085.471.209.367.419.314.576-.105.157.209.314.209.471,0,.105.209.105.367.105.576.471.052.89,0,1.362-.105-.105-.105-.157-.157-.209-.314.367-.262.786-.262,1.152,0l-.367.367c.471.262.786.105.943-.367.209.052.209.157,0,.314.209.105.367.105.576.105-.052-.209,0-.419.209-.576.262.157.471.209.786.209v.576c.628.052.681-.105.209-.367.471-.209.89-.209,1.362,0,.995-.157,2.042-.314,2.985-.367.157.157.314.314.471.367.89,0,2.147-.576,2.828.209.209-.105.367-.262.576-.367.105.209.209.419.367.576,2.2-.628,4.399.524,6.599,0,.105.209.105.367.105.576.367,0,.576-.209.681-.576.105.209.105.367.105.576.314.052.524-.105.681-.367.052.157.157.262.314.367.471-.209.89-.314,1.257-.367.314.157.576.314.786.576l.209-.209c.838.052,1.571.262,2.304.576.262-.157.576-.209.89-.209,0,1.833.524,0,1.362,0,.576.367,1.205.628,1.938.681l-.367.367c.471.052.995.157,1.466.314.314-.105.576-.314.786-.576.105.209.105.367.105.576.786.262,1.414.681,2.147,1.152-.262.209-.209.419.105.576l.209-.209c.89.367,1.728.786,2.619,1.152-.314.157-.628.262-.943.314.209.157.209.314.105.471-.419-.367-.89-.681-1.362-.943-.105.314,0,.524.314.681-.471.105-.524.262-.105.471l.209-.209c.681.419,1.309.576,2.042.471-.262.157-.367.314-.209.471.471-.419.995-.524,1.571-.367.89-.052,1.623-.995,2.514-.681-.367.209-.524.524-.471.89.209-.262.367-.262.576,0,.209-.314.419-.419.681-.209-.524.262-1.047.628-1.571,1.152-.209-.209-.367-.471-.471-.786-.157.105-.314.157-.471.209.105.157.209.367.209.576-.576-.105-1.047-.262-1.571-.576-.157.262-.367.524-.576.786.367.786.209.786-.471,0-.419.157-.838.262-1.257.367-.262-.262-.471-.209-.576.209.419.262.838.314,1.257.209.052.105.105.262.209.367.838.157,1.938-.314,2.514.367.838-.052,1.676-.105,2.619-.105-.367.628-.838.786-1.466.471-.262.052-.471.157-.681.314,1.1-.052,2.2.786,3.299.314.471.838-1.362,1.1-1.938.786-.209.105-.367.209-.576.314.209.105.209.209,0,.314-.209-.262-.471-.367-.786-.367v.576c-.314-.052-.628,0-.943.105.628.157,1.257.105,1.833-.105.157.628-.052.786-.576.576-.105.209-.105.367,0,.576.628-.209,1.152-.524,1.623-.943.157.157.262.367.314.576.209-.314.367-.262.471.105-.209.209-.367.471-.576.681.314.262.419.576.314.943-.576.471-1.047.995-1.466,1.571,0,.157-.052.314-.209.367-.89-.157-1.676.052-2.409.576-.314-.524-.628-.524-.943,0-.105-.105-.157-.157-.314-.209-.628,1.728-3.037,2.042-4.556,2.723-.209-.105-.314-.209-.367-.367-.209.367-.524.471-.89.209-.471.157-.943.314-1.466.576-.576-.314-1.047-.209-1.362.367-.367-.367-.628-.367-.786,0-.052-.157-.157-.262-.314-.367-.681.052-1.257.314-1.728.786,0-.89-.314-.943-.89-.209-.262-.157-.524-.052-.786.209-.262-.471-.576-.471-.89,0-.209-.052-.419-.105-.576-.209-.052.89-.314.943-.786.105-.733-.105-1.414-.105-2.147,0,.681.105.733.367.209.681-.419-.314-.838-.524-1.362-.576-.052-.262-.105-.262-.209,0-.419.209-.89.314-1.362.367-.314-.262-.733-.367-1.152-.314.209.157.209.314.105.471-.471-.471-.733-.367-.89.367-.314-.157-.419-.419-.367-.786-.681-.052-.786.157-.209.576-.105.052-.209.105-.314.209-.262-.157-.471-.367-.681-.576.209-.157.209-.314,0-.367-.209.419-.471.471-.786.209-.262.314-.576.419-.943.314l.367-.367c-.367-.052-.786,0-1.152.105,0-.105-.052-.157-.209-.209-.262.209-.524.367-.786.576-.209-.262-.471-.471-.786-.576-.786.262-1.571.262-2.304,0-.314.157-.419.419-.367.786-.209.052-.419,0-.576-.105-.105-.262-.209-.471-.209-.681-.471.209-.943.471-1.362.786-.209-.262-.157-.471.209-.681-.367-.105-.681-.052-.943.209.314.209.262.367-.105.471-.471-.314-.733-.157-.89.367.105.262.262.524.367.786-.367.157-.786.314-1.152.471l.209.209c-.419-.052-.838-.052-1.257.105-1.1-.262-2.357-.733-3.195.209-.105-.262-.314-.471-.576-.576-.367.157-.733.157-1.152,0v.576c-.471-.105-.89-.105-1.257,0-.052-.209-.105-.367-.209-.576-.314-.052-.628.105-.943.367-1.309-.209-3.037-.367-4.137.576-.262-.314-.524-.524-.89-.786-.157.209-.314.367-.471.576-.576-.105-1.152-.262-1.623-.576-.524.314-1.1.471-1.728.576-.262-.471-.524-.471-.89,0,.209.157.209.314,0,.367-.157-.157-.262-.367-.209-.576-1.1-.052-2.461-.628-3.299.209-.157-.157-.367-.314-.576-.367-.314.262-.628.262-.943,0-.209.052-.367.209-.471.367-.209-.105-.367-.262-.576-.367-.681.157-1.362.209-2.042.209-.105-.209-.262-.367-.367-.576-.052.157-.105.314-.209.471-1.466.209-3.037.052-4.451.105-.314-.524-.576-.471-.681.209-.314-.262-.628-.262-.89,0-.157,0-.262,0-.367.105.209.105.209.209,0,.314-.367-.157-.471-.314-.367-.576-.786-.105-1.571.052-2.304.367-.367-.157-.681-.262-1.047-.367-.209.052-.314.209-.314.367-.209-.367-.471-.419-.786-.209-.471-.209-.995-.209-1.466,0-.262-.052-.524-.209-.786-.367-.052.157-.157.262-.314.367-.367-.157-.733-.157-1.152,0-.262-.157-.576-.262-.89-.367-.838.628-1.728.733-2.723.209-.157,0-.262.052-.314.209-.943,0-1.781.052-2.619.209-.052-.157-.157-.262-.314-.367-.314.105-.628.209-.943.314.524.681-1.519-.157-1.833-.314-.105.052-.209.052-.314.105.576.157.681.367.209.681-.314-.157-.628-.367-.89-.576l-.367.367c-.262-.105-.524-.262-.786-.367-1.1.367-2.147.367-3.299.576-.262-.157-.576-.314-.89-.367.052-.262,0-.524-.105-.786-.262.157-.576.157-.89.105l-.209.209c.209.105.367.105.576.105-.157.89-.576.995-1.257.367-.105.157-.314.209-.471.209-.209-.157-.471-.262-.786-.209.052.209,0,.419-.105.576-.209-.209-.419-.209-.681,0-.157-.157-.262-.367-.314-.576-.105.209-.209.419-.367.576-.628-.052-1.309-.052-2.042,0,0-.157,0-.262-.105-.367-.262.262-.524.262-.786,0-.157.314-.419.524-.786.576-.524-.419-1.781-.628-1.833.209-.471.052-.576-.052-.367-.367-.367-.209-.576-.105-.786.314-.995-.209-1.938-.052-2.828.471-.209-.367-.576-.628-.943-.786.105.314.052.681-.105.943-.262-.157-.576-.262-.89-.367-.209.105-.314.209-.367.367-1.047-.262-2.042-.262-3.09,0-.209-.105-.367-.262-.576-.367-.419.105-.838.157-1.257.209-.052-.262-.105-.262-.209,0-.367,0-.681.052-.943.209-.471-.786-.786-.786-.89,0-.314-.105-.628-.262-.943-.367-.209.262-.471.419-.786.576-.209-.105-.314-.209-.367-.367-.471.157-.995.157-1.571,0-.105.209-.209.419-.367.576-.524-.157-.995-.262-1.571-.367-.209.209-.471.367-.681.576-.576-.471-1.205-.681-1.938-.681.628.471-.367.786-.786.681-.052-.262.052-.471.209-.681-.262-.157-.524-.105-.786.105.209.89.052.995-.471.209-.314.314-.733.471-1.257.367.052-.262,0-.524-.209-.786-.105.209-.105.471,0,.786-.524.052-1.047,0-1.571-.209-.157.157-.314.262-.471.367-.419-.105-.786-.157-1.152-.209-.157.367-.367.419-.681.209.157-.209.209-.367.105-.576-.314.524-.733.628-1.257.367.681-.157.733-.367.105-.576-.838.838-2.095.105-2.723.943-.157-.209-.314-.209-.471-.105.209.157.209.314.105.471-.314-.157-.681-.262-1.047-.314.209-.105.209-.209,0-.314-.157.157-.262.367-.314.576-.419-.157-.838-.262-1.257-.209-.419-.471-.838-.419-1.152.105.262.157.367.314.209.471-.262-.105-.524-.262-.786-.367-.262.157-.524.209-.786.105.105-.105.157-.157.209-.314-.209-.157-.419-.262-.681-.367-.209.262-.524.419-.89.471.733.471.681.524-.209.314-.105-.262-.209-.524-.209-.786-.367.262-.524.576-.576.943-.471.052-.838-.105-1.152-.367-.157.157-.314.262-.471.367-.314-.262-.628-.262-.943,0-.314,0-.367-.105-.105-.314-.314-.209-.628-.314-.943-.314-.419-.262-.838-.628-1.257-.943-.052.157-.157.262-.314.367-.052-.576-1.466-.733-.943-1.152.262.105.471.209.681.367.157-.105.209-.209.314-.367-.419-.105-.786-.314-1.047-.576h-.786c-.314-.681-.681-.733-1.152-.209-.419-.576-.628-.524-.681.209-.524-.209-1.047-.209-1.571,0-.105-.209-.157-.419-.209-.576-.314.367-.681.419-1.047.209-1.309.209-2.723.838-3.875-.209-.419.367-.89.471-1.466.314-.157-.367-.105-.733.209-1.047.314.157.628.105.943-.209-.105-.157-.209-.209-.367-.209v-.576c-.419.052-.838-.052-1.152-.314l.367-.367c-.367-.105-.786-.052-1.152.105-.367-.105-.681-.314-.943-.576-.209.367-.471.628-.89.786,0-.314-.052-.576-.105-.786-.157.157-.262.367-.209.576h-.576c-.052-.262.052-.471.209-.681-.262-.105-.524-.105-.786,0,.419.157.419.367,0,.681-.367-.157-.733-.157-1.152,0v-.576c-.576.314-1.205.576-1.938.786-.105-.209-.262-.367-.367-.576-.209.157-.419.314-.681.367-.262-.262-.524-.262-.786,0-.209-.105-.367-.209-.471-.367-1.728.838-3.928.052-5.813.367-.157-.157-.262-.367-.209-.576-.471.105-.943.262-1.362.576-.157-.105-.209-.209-.314-.367-.367.471-.733.471-1.152,0-.681.786-1.833-.052-2.723.367-1.938-.995-4.609.733-6.18-.786-.733.681-1.885.157-2.723.367-2.566-1.1-6.023.628-8.693-.576-.419.262-.838.262-1.257-.105.157-.157.367-.314.576-.367-.105-.052-.262-.052-.367-.105-.314.314-.733.576-1.152.786-.786-.157-1.571-.419-2.304-.786.105,1.047-1.519.262-2.147.314-.105-.105-.209-.209-.314-.314-.262.524-.628.628-1.047.314.419-.105.419-.209.105-.314-.681.628-1.571.524-2.304,0-.419.209-.838.209-1.257.105-.157-.262-.157-.576-.105-.89-.209.157-.419.209-.681.314.314.157.367.367.314.681-.209-.209-.419-.209-.681,0-.262-.367-.524-.419-.89-.209-.157-.209-.262-.419-.367-.576-.209.105-.367.262-.471.471-.314,0-.628.052-.89.105,0-.995-1.047-.681-1.728-.943-.105.052-.209.052-.314.105.209.471.052.576-.367.314,0-.105-.052-.157-.209-.209-.262.105-.524.262-.786.367-.105-.157-.105-.314-.105-.576-.367.419-.89.052-1.362,0-.209.105-.367.262-.471.367-.89.262-.943.157-.209-.314-.314-.052-.628-.052-.943.105,0-.157-.052-.314-.209-.367-.471.314-.89.209-1.257-.209-.524.262-1.047.262-1.571,0-.157.157-.314.314-.471.367-1.1-.681-2.409-.314-3.666-.471-.105-.105-.209-.209-.314-.314-.628.471-1.362.524-2.042.314.471-.681-2.671-.105-3.299-.105-.209-.105-.367-.209-.471-.367-.471.105-.89.209-1.362.209-.471-.419-.943-.419-1.362,0-1.623-1.1-3.509,0-5.342-.576-.052-.262-.105-.262-.209,0-.838-.209-1.623-.262-2.409-.209l-.367.367c-.995-.419-1.938-.733-2.88-.943-.314.157-.576.367-.89.576-.209-.157-.209-.314,0-.471-.576-.052-1.1,0-1.623.314-.471-.471-.995-.471-1.466,0l-.367-.367c-.052.105-.105.262-.209.367-.367-.052-.681-.262-.89-.576-.157.105-.314.209-.471.314.209.157.209.314.105.471-.367-.105-.681-.314-.943-.576l-.367.367c-.419-.157-.838-.262-1.257-.314.209-.157.209-.314.105-.471-.314.157-.681.262-1.047.314.209.052.419.157.576.314-.995.157-1.885-.105-2.723-.786-.262.105-.471.209-.681.367-.052-.209-.157-.419-.314-.576-.471.419-.943.733-1.571.943-.157-.105-.209-.209-.209-.367.314,0,.471-.105.576-.367-.524-.209-.995-.262-1.571-.105.262.157.419.367.367.681h-.943c.052-.471-.052-.576-.367-.367-.209-.262-.471-.367-.786-.367v.576c-.262.052-.524,0-.786-.209.209-.157.209-.314,0-.367-.157.157-.262.367-.209.576-.419,0-.786-.105-1.047-.367-.314.262-.681.419-1.047.367v-.576c-.262.262-.681.471-1.257.576-.367-.262-.314-.471.105-.681-.052-.052-.105-.052-.209-.105-.367.262-.681.262-1.047,0-.314.105-.314.157.105.314-.89.209-1.623,0-2.2-.681-.157.209-.419.367-.681.471.471.209.419.314-.209.314,0-.838-.105-.89-.209-.209h-.576c.052-.209,0-.419-.105-.576-.262.262-.576.262-.89,0-.314.105-.524.262-.786.471-.314,0-.628.052-.89.105-.052-.262-.157-.524-.314-.786-.105.157-.105.314-.105.576-.681-1.047-1.99-.314-2.985-.943-.419.157-.89.209-1.362.209,0,.209-.105.314-.314.367-.367-.105-.681-.314-.943-.576-.209.105-.367.209-.471.367-.052-.314-.052-.524,0-.786-.419.157-2.566-.262-1.571.471-.367.105-.786.105-1.152.105-.052-.681-.314-.733-.786-.209-.209-.262-.471-.367-.786-.367-.367-.314-.786-.524-1.257-.576-.943.471-1.781-.105-2.723-.367-.052.209-.105.367-.209.576-.314-.314-.681-.576-1.047-.786-.157.157-.262.367-.209.576-.628-.209-1.152-.524-1.623-.943-1.047,0-2.304.524-3.09-.576-.105.209-.052.419.105.576-.262.209-.471.262-.786.105.209-.314.157-.576-.105-.89-.314.105-.628.262-.943.367-.89-.733-1.938-.471-2.985-.367.052-.681-.105-.733-.471-.209-.209-.209-.367-.367-.576-.576-.367.471-.681.471-.943,0-.681.157-1.257.052-1.833-.367-.157.105-.314.157-.471.209-.209-.262-.471-.419-.786-.576-.157,0-.262.052-.314.209-.681,0-1.414-.209-2.147-.576-.314.105-.628.157-.943.209v-.576c-1.466-.157-2.776-.209-4.085.576-.262-.314-.524-.524-.89-.786-.052.419-.262.733-.576.943-.157-.105-.209-.209-.314-.367-.367.262-.628.157-.786-.314.052-.052.105-.105.209-.209-.209-.105-.419-.262-.576-.471-.524.471-1.152.471-1.728.786-.209-.052-.209-.157,0-.314-.314-.105-.628-.105-.943,0,.471.157.471.262,0,.314-.105-.262-.367-.471-.89-.576-.367.262-.576.209-.681-.314.367-.209.471-.471.367-.786-.314-.209-.576-.419-.89-.681-.105.105-.209.209-.314.314-.471.052-.89.052-1.257.105-.367-.628-.89-.995-1.623-1.047.105-.052.262-.105.367-.209-.314-.052-.576-.157-.89-.314.105-.367.105-.786-.105-1.152-.943,0-.995-.367-.209-1.047-.314-.105-.628-.105-.943-.105.052-.262,0-.524-.209-.786-.262.209-.524.367-.786.576-.052-.105-.105-.209-.209-.314.209-.314.419-.628.576-.943.367-.105.786-.262,1.152-.367-.209-.576-.471-.628-.786-.105-.209-.262-.471-.419-.786-.471.628-.786,1.362-.786,2.2-.471.209-.105.471-.262.681-.367-.105-.157-.209-.209-.367-.209.157-.471,0-.524-.471-.209-.367-.419-.681-.419-.943,0-.105-.105-.209-.209-.314-.314-.786-.052-1.571-.105-2.304-.209.209-.157.209-.314.105-.471-1.309,0-.733-.943.105-1.047-.157-.157-.314-.314-.367-.471.628-.209,1.257-.367,1.938-.471-.209-.052-.367-.105-.576-.209.419-.052.786-.157,1.152-.314.262.105.419.314.471.576.262-.628.576-.681.943-.209.314-.105,1.833-.419,1.257.105.367.157.681.052.89-.314.314.419.733.471,1.152.209.209.262.471.419.786.576.052-.105.105-.262.209-.367.786.314,1.466.105,2.042-.576-.576-.419-1.152-.419-1.728-.105.262.157.471.105.681-.105.105.105.209.209.314.314-.314.052-.628.157-.943.314-.262-.314-1.362-.576-.786-1.047-.209-.052-.367-.105-.576-.209.209-.157.209-.314,0-.471-.524.628-1.1.681-1.728.209-.314-.995-.052-1.152.786-.576.262-.524.524-.524.786,0,.157-.157.262-.367.209-.576.209-.052.419,0,.576.105-.628.681,1.152.628,1.466,1.047.052-.157.209-.314.367-.367.471.262.943.471,1.466.576,0,.367-.209.576-.576.681.576.105.89-.105.943-.681.524.157.995.157,1.571,0,.262.209.576.314.943.314-.995-.576.419-.943.681-.314.105-.209.105-.367.105-.576.367.052.681-.052.943-.209.367.157.786.209,1.152.314-.524.628-.314.838.576.576-.262-.157-.419-.367-.367-.681.733.052,1.414-.105,1.938-.367.157.052.262.157.367.314-.262.052-.524.105-.786.209.471.157.838.052,1.152-.314.628.105,1.257.262,1.833.367.314-.471.524-.471.681,0,.471-.052.576.157.367.471.576.524,1.205.471,1.833-.105.052.628.209.681.471.209.157.157.262.367.209.576.576-.105,1.1-.419,1.466-.943.314.157.681.262,1.047.314-.262.367-.262.733.105,1.047.052-.471.262-.786.681-.943.209-.733.471-.733.786,0,.157-.157.262-.367.209-.576h.576c-.209.419-.367.89-.471,1.362.157-.157.314-.314.471-.367.367.052.786.105,1.152.209.262-.209.419-.471.471-.786.209.209.367.367.576.576.262-.367.628-.471,1.047-.314-.209.157-.209.314,0,.471.314-.733.628-.733.943,0,.209-.052.209-.157,0-.314.367-.052.628-.209.89-.471.367.262.314.471-.105.681.471-.052.89-.052,1.362.105.262.367.105.628-.367.681.157.052.314.157.471.314.419-.524.89-.628,1.466-.367.262-.209.524-.367.786-.576.157.052.262.157.367.314,3.666.157,7.279.105,10.945-.105.419.419.943.419,1.466,0,1.623-.209,3.771.733,5.132-.209.419.419.89.419,1.362,0,3.614-.314,7.332.786,10.841-.367,1.047.733,2.357,0,3.561.209-.105-.367-.262-.786-.367-1.152.314,0,.576.105.786.367.052-.157.105-.314.209-.471.576-.157,1.152-.314,1.728-.471.524.681-.524,1.257-1.047.786-.157.367-.367.628-.681.89.89.314,1.519-.89,2.304-.209-.262.157-.367.314-.209.471.681-.314,1.362-.681,1.938-1.152.105.052.209.105.314.209.157-.524-.943-.681-1.257-.367-.262-.105-.524-.209-.786-.367.157-.367.367-.471.681-.209.576-.628,1.205-.733,1.833-.209.314-.209.576-.471.786-.786.524.419.995.314,1.362-.367.367.262.681.209.943-.209l.367.367c.524-.419,1.152-.681,1.833-.786.209.105.314.209.367.367.052-.419.209-.471.471-.209.314-.262.628-.419.943-.576.157.105.209.209.314.367.367-.314.786-.524,1.257-.576.052.052.105.105.209.209-.209.157-.367.314-.576.471.314.052.628.052.943,0-.209.209-.419.419-.576.681.105.052.262.105.367.209-.628.209-.995-.052-1.047-.786-.419.209-.838.471-1.257.786.105.419.367.576.786.576,0-1.047.209-1.152.576-.314.681.157,1.309.052,1.938-.209-.419-.367-.314-.628.367-.786-.052-.052-.105-.105-.209-.209.262-.105.367-.262.367-.471.262,0,.524-.052.786-.209.262.314.367.628.209.943-.262-.524-.419-.419-.471.209-.209.105-.471.262-.681.367.105.052.209.105.314.209.786-.314,1.362-.628,1.833-.943-.052-.733.209-.89.786-.471-.209.157-.209.314-.105.471.262-.105.471-.314.576-.576.681.628,1.362-.052,2.042.367,1.257-.157,2.566-.262,3.875-.314-.105-.052-.262-.105-.367-.209.314-.209.628-.314.943-.209-.105.052-.262.105-.367.209.262.052.471.157.681.314,1.781-.733,3.509-.262,5.342-.576.209.105.367.262.576.367.209-.157.314-.209.314-.314l-.007.005ZM163.44,398.126c.367-.262.786-.209,1.152.105-.314,0-.733-.052-1.152-.105ZM173.338,398.912c-.314-.105-.628-.157-.943-.209.419-.524.786-.471.943.209ZM145.267,399.488c-.262-.105-.524-.157-.786-.105.314.209.419.524.367.89-.733-.209-1.519-.157-2.2.209-.157-.105-.262-.209-.314-.367.524-.314,1.1-.419,1.728-.367.052-.209,0-.419-.105-.576-.314.419-1.885.419-1.257-.209.786-.157,1.519-.157,2.2,0,.209.157.314.367.367.524h0ZM171.767,398.703c.157.052.262.157.367.314-.209.105-.367,0-.367-.314ZM170.405,399.279c-.367.052-.628.262-.89.576-.052-.157-.157-.314-.314-.471.367-.052.628-.209.89-.471.157.105.262.262.314.367h0ZM173.338,398.912c.786.524.733.628-.209.367.052-.105.157-.262.209-.367ZM166.949,399.279c.419.052.419.262,0,.576-.209-.157-.209-.367,0-.576ZM167.891,399.488c.314-.367,1.519-.209.89.367-.262-.209-.524-.314-.89-.367ZM170.405,399.279c.471,0,.524.157.105.367-.052-.052-.105-.209-.105-.367ZM166.163,399.488c0,.105.052.209.209.209-.052.157-.157.262-.314.367-.157-.262-.367-.419-.681-.471.262-.105.524-.105.786-.105ZM140.868,399.907c.576-.052,1.047,0,1.571.209-.681-.105-1.257.105-1.728.576-.471-.314-.471-.628,0-.943.052-.052.105.052.157.157h0ZM202.351,399.698c.419-.052.786,0,1.152.209-.419.157-.995.262-1.152-.209ZM203.87,399.698c.367.052.419.157.209.367-.157-.052-.209-.209-.209-.367ZM280.644,399.698c.471.628.262.733-.576.314.105-.209.314-.314.576-.314ZM165.22,399.907c.367.052.419.157.209.367-.209-.105-.262-.209-.209-.367ZM272.527,399.907c.628-.052.681.105.209.367-.209-.105-.262-.209-.209-.367ZM277.921,399.907c.209-.052.419,0,.576.209-.314.209-.471.157-.576-.209ZM275.616,400.064c.367.052.419.157.209.367-.157-.052-.262-.209-.209-.367ZM160.35,400.483c.209-.209.367-.209.576.105-.209.052-.367.052-.576-.105ZM265.928,400.64c.209-.157.471-.262.786-.209,0,.105-.105.209-.209.314.628.157,1.257.105,1.833-.105.157.105.314.209.471.314-2.776-.209-5.656.786-8.327-.105.524-.367.943-.367,1.362,0,.838-.367,1.623-.367,2.409,0,.576-.314,1.152-.367,1.676-.209h-.001ZM319.503,400.483c.367-.052.524.105.471.367-.524.209-.681.105-.471-.367ZM70.274,400.64c.157.052.262.157.367.314-.262.105-.367,0-.367-.314ZM84.204,400.64c-.157.367-.419.471-.786.314.262-.157.524-.262.786-.314ZM220.523,400.64c.786.576.733.681-.209.314.105-.105.157-.157.209-.314ZM251.055,400.85c1.257-.105,2.723-.524,3.875.105-1.362.105-2.619.052-3.875-.105ZM255.087,400.64c.838-.052,1.676.052,2.514.314-.681.052-2.2.786-2.514-.314ZM258.387,400.64c.262.105.262.262,0,.367-.157-.052-.157-.209,0-.367ZM259.382,400.64c.419-.052.733.052.943.367-.367.052-.733.052-1.152.105l-.209-.209c.209,0,.314-.105.419-.262h0ZM300.545,400.64c0,.314.105.471.367.576-.367.209-.733.262-1.152.105.314-.209.576-.419.786-.681h-.001ZM320.288,400.64c.524-.105.733.105.681.576-.367-.052-.576-.262-.681-.576ZM72.997,401.059h.367c-.105.576-.419.786-.943.681.367-.105.524-.314.576-.681ZM296.46,401.059c.157.052.262.157.367.314-.209.052-.314-.052-.367-.314ZM298.816,401.059c.733,0,.786.105.105.367-.367-.052-.367-.157-.105-.367ZM300.911,401.216c.209-.157.471-.262.786-.209-.105.471-.367.576-.786.209ZM303.058,401.059c.157,0,.314.052.367.209-.367.209-.733.262-1.152.105.314-.105.576-.157.786-.314h-.001ZM76.82,401.216c-.052.419-.209.471-.576.105.209-.105.419-.105.576-.105ZM90.384,401.216c.524.314.419.419-.209.314.105-.052.209-.157.209-.314ZM245.661,401.216c.367.105.419.262.209.576-.209-.157-.262-.314-.209-.576ZM303.844,401.216c1.1-.052,1.205.105.209.367-.471.052-.524-.052-.209-.367ZM306.934,401.426c.105-.262.262-.262.367,0-.052.209-.209.209-.367,0ZM78.758,401.426c.524.314.471.419-.209.314.157-.105.209-.209.209-.314ZM135.841,401.426c.419.157.367.262-.209.367.052-.105.105-.209.209-.367ZM235.606,401.635c.367-.262.786-.209,1.152.105-.367-.052-.786-.105-1.152-.105ZM317.565,401.426c.105,0,.157.052.209.209-.157.209-.367.262-.576.105.157-.052.262-.157.367-.314h0ZM330.919,401.792h.367c0,.262.157.419.367.471l-.314.314c-.209-.157-.419-.209-.681-.209.157-.157.209-.314.262-.576h-.001ZM73.573,402.002c.838.209.89.471.209.786-.367-.105-.733-.157-1.047-.209-.052-.052-.052-.105-.105-.209.314-.105.628-.209.943-.367h0ZM80.538,402.002c.262.105.262.262,0,.367-.209-.052-.209-.209,0-.367ZM92.112,402.211c0-.105.052-.157.209-.209.209.157.262.367.105.576-.052-.157-.157-.314-.314-.367h0ZM93.474,402.002c.524.314.419.419-.209.314.105-.105.209-.209.209-.314ZM310.966,402.578c-.262.052-.524,0-.786-.209.367-.209.628-.157.786.209ZM313.113,402.787c-.733.052-1.466,0-2.147-.209.314,0,.524-.157.681-.367.209.419.419.471.786.209.262.105.471.209.681.367h-.001ZM139.088,402.787c.052-.157.157-.262.314-.367.105.209,0,.367-.314.367ZM144.901,402.421c.367.105.419.262.209.576-.209-.157-.262-.367-.209-.576ZM313.323,402.787c0-.157,0-.262.105-.367.314.157.628.209.89.209-.367.157-.681.209-.995.157h0ZM74.516,402.787c.314-.262.576-.209.786.209-.052.052-.052.105-.105.209-.157-.314-.367-.419-.681-.419h0ZM77.448,402.997c-.733.367-1.362.262-1.938-.314.628,0,1.309.105,1.938.314ZM123.848,402.997c.471-.419,1.257.367,1.623-.367.209.209.314.419.314.681-.419,0-.838.052-1.257.105-.262-.209-.471-.314-.681-.419h0ZM128.3,402.578c1.152.105,2.357.157,3.456.105-.576.105-1.047.314-1.466.681-1.047-.105-2.409-.628-3.09.367-.471-.157-.89-.367-1.257-.681.419-.209.89-.262,1.362-.209-.209.157-.209.314-.105.471.314-.314.628-.576,1.1-.733h0ZM144.115,402.578c.262.105.262.262,0,.367-.157-.052-.157-.209,0-.367ZM146.472,402.787c.209-.262.471-.262.786,0-.262.209-.524.209-.786,0ZM148.776,402.578c.367.052.419.157.209.367-.157-.052-.262-.209-.209-.367ZM103.319,402.787c.367.052.419.157.209.367-.157-.052-.209-.209-.209-.367ZM121.125,402.997c-.471.262-.419.419.209.576-.209.157-.471.262-.786.209.052-.209,0-.419-.209-.576-.576.105-1.152.314-1.623.576-.733-.786-1.414-.786-2.147,0-.786-.209-1.623-.419-2.409-.576-.105.157-.105.314-.105.576-.209-.209-.367-.419-.471-.681,2.461-.524,5.132,0,7.541-.105h0ZM123.848,402.997c-.105.314-.367.471-.681.576-.471-.419-.995-.419-1.571,0-.157-.209-.314-.419-.471-.576.89-.262,1.833-.262,2.723,0ZM314.475,402.787c.209-.052.419,0,.576.209-.314.209-.471.157-.576-.209ZM315.627,402.997c.105-.262.262-.262.367,0-.052.157-.209.157-.367,0ZM72.002,402.997c.209-.052.419,0,.576.209-.262.209-.471.262-.786.105.157-.105.209-.209.209-.314h.001ZM101.8,402.997c.367.052.419.157.209.367-.209-.105-.262-.209-.209-.367ZM104.681,402.997c.157.052.262.157.367.314-.209.052-.367-.052-.367-.314ZM113.217,403.573c-.314-.157-.628-.105-.943.209-.524-.471-.995-.471-1.571,0-.262-.209-.524-.314-.89-.367-.471.209-.995.209-1.466,0-.367.157-.786.262-1.152.314.105-.419.367-.628.786-.681,1.414.367,4.661-.786,5.237.524h0ZM135.841,402.997c.995,0,.995.105.105.367-.105-.105-.157-.262-.105-.367ZM316.57,402.997c.733,0,.733.105.105.367-.052-.105-.105-.262-.105-.367ZM320.288,403.154c.157.052.262.157.367.314-.262.105-.367,0-.367-.314ZM323.745,403.573c.367.052.419.157.209.367-.157-.105-.209-.209-.209-.367ZM334.585,403.573c.367.157.733.209,1.152.314-.524.105-1.047.105-1.571,0,.209-.105.314-.209.419-.314ZM339.037,403.73c.262.157.262.367,0,.576-.209-.157-.209-.367,0-.576ZM81.271,404.149c.209-.209.367-.209.576.105-.209.314-.419.314-.576-.105ZM338.042,404.149c-.262.105-.419.105-.576,0,.209-.262.419-.262.576,0ZM85.147,404.149c.471,0,.524.157.105.367-.105-.105-.105-.262-.105-.367ZM327.044,404.306c.314.105.628.209.943.314-.314.105-.838.157-.943-.314ZM328.563,404.516c.471,0,.524.157.105.367-.052-.105-.105-.209-.105-.367ZM329.348,404.516c.419.052.786.157,1.152.314-.367.052-.733.052-1.047.105-.105-.157-.105-.262-.105-.419ZM341.131,404.725c.419-.262.89-.262,1.362,0-.419.157-.89.157-1.362,0ZM80.695,404.935c.105-.262.262-.262.367,0-.052.157-.157.157-.367,0ZM331.286,404.725c.209.209.209.367-.105.576-.105-.209-.052-.419.105-.576ZM361.241,404.725c.524.157.576.419.314.786-.262-.105-.471-.209-.681-.209.209-.157.314-.367.367-.576h0ZM336.523,405.668c-.105,0-.209.105-.314.209-.995-.105-1.99-.262-2.985-.471.105-.157.209-.209.367-.314.838.89,2.357-.419,2.933.576h-.001ZM342.702,405.877c-.262-.157-.471-.209-.786-.105.628.367-.524.524-.786.681-.105-.157-.105-.314,0-.576-.314.105-.524.262-.681.576-.052-.314-.262-.524-.576-.576-.262.209-.524.367-.89.367.209-.157.209-.314,0-.367-.786.157-1.571.209-2.409.209-.105-.105-.105-.262-.105-.367.262,0,.367-.105.367-.367.419-.052.786.052,1.047.367.838-.157,1.676-.105,2.619.209.471-.262.471-.471,0-.681.524,0,1.047.105,1.571.314.367-.209.786-.157,1.152.105-.21-.052-.367.052-.524.209v.002ZM363.389,405.092c.419.157.576.419.367.786-.157-.209-.367-.367-.576-.471.105-.105.157-.157.209-.314h0ZM364.174,405.301c.157-.262.367-.262.576,0-.209.209-.367.209-.576,0ZM365.536,405.668c0-.314.105-.471.367-.576.367.314.733.628.943,1.047-.105.105-.262.105-.367,0-.157-.576-.471-.733-.943-.471ZM369.935,405.511c.262,0,.419.105.576.314-.262.105-.524.105-.786,0,.157-.105.209-.209.209-.314h.001ZM68.336,405.668c.262.052.524.157.786.314-.524.105-1.047.105-1.571,0,.314-.052.576-.157.786-.314h-.001ZM375.172,405.668c.209.157.471.262.786.314-.471.105-.89.105-1.362,0,.157-.209.314-.314.576-.314ZM342.702,405.877c.367.209.471.524.314.943-.209-.314-.471-.419-.89-.367.209-.157.419-.314.576-.576h0ZM346.368,405.877c.628-.052.681.105.209.367-.157-.052-.209-.209-.209-.367ZM368.207,406.087c.105-.262.262-.262.367,0-.052.157-.209.157-.367,0ZM376.324,405.877c.157.052.262.157.367.314-.209.052-.367,0-.367-.314ZM378.052,405.877c.628.367,1.309.419,2.042.209.262.105.524.262.681.471-.733-.105-1.414-.105-2.147,0-.262-.209-.628-.367-.943-.367.157-.105.314-.157.367-.314h0ZM376.9,406.244c.157-.262.367-.262.576,0-.105.157-.314.157-.576,0ZM343.855,406.244c.471.262.419.471-.209.576l-.209-.209c.157-.105.314-.209.419-.367h0ZM353.334,406.663c0-.209.105-.314.314-.367.419.105.838.209,1.257.314-.576.209-1.047.209-1.571.052h0ZM66.608,406.663c-.314.209-.628.209-.943.105.262-.052.524-.157.786-.314.052.052.157.105.157.209h0ZM349.249,406.663c-.157.262-.367.262-.576,0,.157-.105.367-.105.576,0ZM341.917,406.663c-.052.367-.157.419-.367.209.052-.209.209-.262.367-.209ZM346.944,406.82c.209-.524.681.314.471.576-.157-.157-.314-.367-.471-.576ZM353.334,406.663c.105.157.209.262.367.314-.314.105-.628.105-.943,0,.157-.262.314-.314.576-.314ZM357.995,406.663c.89.105,1.833.262,2.723.471-1.047.052-1.938.157-2.88-.209.052-.052.105-.157.157-.262ZM375.172,406.82c.105-.262.262-.262.367,0-.052.209-.209.209-.367,0ZM372.658,406.82c.157.052.262.157.367.314-.209.105-.367,0-.367-.314ZM381.928,407.239c.105-.262.262-.262.367,0-.052.157-.209.157-.367,0ZM383.289,407.029c.262.105.262.262,0,.367-.157-.052-.157-.209,0-.367ZM349.458,407.239c.471,0,.524.157.105.367-.105-.105-.105-.209-.105-.367ZM376.167,407.239c.471.052.576.157.314.367-.262-.052-.367-.157-.314-.367ZM351.762,407.605c.105-.262.262-.262.367,0-.052.209-.157.209-.367,0ZM370.563,407.448c.157.052.262.157.367.314-.471.105-.89.105-1.362,0,.367-.105.681-.209.995-.314ZM384.441,407.448c.157,0,.262,0,.367.105-.262.157-.524.314-.786.471.262.314.262.576-.105.786-.314-.681-.157-1.1.524-1.362h0ZM363.179,407.605c.471,0,.524.157.105.367-.105-.105-.105-.209-.105-.367ZM378.471,407.815c.628-.052.681.105.209.367-.157-.052-.262-.209-.209-.367ZM380.199,407.815c.524.052.995.262,1.362.681-.105.052-.209.052-.314.105-.419-.209-.786-.471-1.047-.786h-.001ZM353.7,408.391c-.367.262-.681.209-.943-.105.367-.157.681-.105.943.105ZM383.289,408.182c.262.105.262.262,0,.367-.157-.052-.157-.209,0-.367ZM354.852,408.6c.367-.262.786-.209,1.152.105-.314-.052-.733-.105-1.152-.105ZM357.366,408.758c-.786.052-.89-.052-.314-.367.262.052.367.209.314.367ZM361.66,408.391c.262.157.262.367,0,.576-.209-.157-.209-.367,0-.576ZM358.937,408.758c-.105.471-.262.524-.576.105.157-.105.367-.105.576-.105ZM360.299,408.758c.157,0,.262,0,.367.105-.262.209-.419.524-.471.89-.367-.367-.367-.681.105-.995h-.001ZM388.526,409.962c.681.052.733.209.209.576-.209-.157-.262-.367-.209-.576ZM370.93,410.538c.105-.262.262-.262.367,0-.052.157-.209.157-.367,0ZM385.436,410.538c.367.052.419.157.209.367-.157-.105-.262-.209-.209-.367ZM374.962,410.905c.262.105.262.262,0,.367-.157-.052-.157-.209,0-.367ZM387.374,410.905c.681-.105,1.309,0,1.938.367-.628.105-1.257.105-1.938,0,.052.681-.105.733-.576.314.157-.262.314-.471.576-.681ZM389.678,411.114c.419.105.786.262,1.152.471-.314.367-1.205.105-1.152-.471ZM379.047,411.271c.471,0,.524.157.105.367-.105-.052-.157-.209-.105-.367ZM377.895,411.69c.157.052.262.157.367.314-.262.052-.367-.052-.367-.314ZM391.616,412.057c.262-.262.419-.157.576.209l-.209.209c-.105-.157-.262-.314-.367-.419h0ZM395.858,412.633c-.262-.157-.524-.157-.786,0,0-.209-.052-.419-.209-.576.157-.052.314-.105.471-.209.157.314.314.576.524.786h0ZM382.137,412.057c.576.105.681.367.314.786-.105-.209-.262-.367-.471-.471.052-.105.157-.209.157-.314h0ZM383.499,412.057c.995.314.995.576,0,.786v-.786ZM384.86,412.476c.524.314.471.524-.105.786-.052-.314,0-.576.105-.786ZM386.955,413.052c-.367-.105-.419-.262-.209-.576.419.105.471.314.209.576ZM388.317,412.842c.157,0,.314.052.367.209-.209.314-.471.367-.786.209.209-.157.314-.314.419-.419h0ZM389.312,413.052c.367-.052.681.052.943.314-.367.367-.733.367-1.152,0,.105-.105.157-.209.209-.314ZM390.464,414.204c.471.052.576.157.314.367-.209-.052-.314-.209-.314-.367ZM391.407,414.361c.471,0,.524.157.105.367-.105-.052-.105-.209-.105-.367ZM394.339,414.571c-.157.471-.367.419-.576-.105.209-.052.367-.052.576.105ZM75.511,415.147c-.209-.157-.209-.314,0-.367.209.157.209.262,0,.367ZM395.073,416.299c-.314.524-.419.471-.314-.209.262-.209.367-.157.314.209ZM396.068,418.813c.209-.157.471-.262.786-.209,0,.838-.105.89-.209.209h-.577ZM105.466,418.813c.262.105.262.262,0,.367-.209-.052-.209-.157,0-.367ZM110.703,419.965c-.314,0-.367-.157-.314-.367.157.105.262.262.314.367ZM396.068,420.96c-.89.052-.943-.105-.209-.367.157.052.209.209.209.367ZM133.694,421.326c.105-.262.262-.262.367,0-.052.209-.209.209-.367,0ZM200.78,424.259c.471,0,.524.157.105.367-.105-.105-.105-.262-.105-.367ZM196.328,424.626c.471,0,.524.157.105.367-.105-.105-.105-.209-.105-.367ZM194.967,424.992c.262.105.262.262,0,.367-.157-.052-.157-.157,0-.367ZM197.114,424.992c1.205,0,1.257.105.105.367-.105-.052-.157-.209-.105-.367ZM201.565,424.992c.157.052.262.157.367.314-.262.105-.367,0-.367-.314ZM205.022,425.411c.052-.157.157-.262.314-.367.105.209,0,.367-.314.367ZM218.167,425.778c.105-.262.262-.262.367,0-.052.209-.209.209-.367,0ZM219.895,425.621c.838-.052-.209.681-.367.209.209,0,.314-.052.367-.209ZM221.099,425.621c.471.052.471.157,0,.367-.209-.105-.209-.209,0-.367ZM222.618,425.621c.262.052.524.157.786.314-.367.105-.628,0-.786-.314ZM224.765,425.621c.367.052.419.157.209.367-.157-.105-.262-.209-.209-.367ZM357.576,425.778c.209-.262.471-.262.786,0-.262.157-.471.157-.786,0ZM248.332,426.354c.471.052.471.157,0,.367-.157-.052-.157-.157,0-.367ZM311.961,426.563c.471,0,.524.157.105.367-.105-.105-.157-.209-.105-.367ZM260.9,427.925c.157-.262.367-.262.576,0-.157.209-.367.209-.576,0ZM302.273,427.925c.471,0,.524.157.105.367-.105-.105-.105-.209-.105-.367ZM233.249,428.135c.262.105.262.262,0,.367-.157-.105-.157-.209,0-.367ZM234.401,428.135c.262.105.262.262,0,.367-.157-.105-.157-.209,0-.367ZM260.115,428.292c.209.157.262.314.105.576-.314-.157-.367-.367-.105-.576ZM301.487,428.711c-.105,0-.209.052-.209.209-.105,0-.157-.052-.209-.209.209-.262.314-.262.419,0h0ZM249.117,429.287c-.262.052-.419.209-.576.367,0-.628.314-.943.943-.89-.157.157-.262.314-.367.524h0ZM301.487,428.711c.157.052.209.209.209.367-.209.052-.314-.052-.367-.209.105,0,.157-.052.157-.157h0ZM284.1,428.868c.262.105.262.262,0,.367-.157-.052-.157-.209,0-.367ZM249.117,429.287c.367-.262.681-.209.943.105-.367.105-.681.105-.943-.105ZM245.818,429.444c.105.314.105.576,0,.786-.524-.262-1.1-.419-1.728-.471.262-.105.524-.262.681-.471.262.419.628.471,1.047.157h0ZM281.22,429.444c.105-.262.262-.262.367,0-.105.209-.209.209-.367,0ZM248.541,429.653c.262.681.157.733-.367.209.052-.157.209-.209.367-.209ZM258.806,429.653c.471.052.576.157.314.367-.262-.052-.367-.157-.314-.367ZM270.17,429.863c.157-.262.367-.262.576,0-.157.209-.367.209-.576,0ZM272.684,429.653c.471,0,.524.157.105.367-.052-.105-.105-.209-.105-.367ZM256.868,429.863c.367.052.419.157.209.367-.209-.105-.262-.209-.209-.367ZM270.956,430.02c.471,0,.524.157.105.367-.105-.052-.105-.209-.105-.367ZM255.506,430.229c.314.052.419.262.314.576-.157-.209-.209-.367-.314-.576ZM261.896,430.439c.471-.262.995-.262,1.571,0-.524.209-1.047.209-1.571,0ZM251.631,430.439c.471,0,.524.157.105.367-.105-.105-.157-.209-.105-.367ZM261.896,430.439c-.052.157-.157.262-.314.367-.105-.262,0-.367.314-.367ZM247.389,431.8c0-.209.052-.367.209-.471-.367-.052-.786-.105-1.152-.209.524-.105,1.047-.105,1.571,0-.209.262-.367.524-.628.681h0Z" fill="#febe04" fill-rule="evenodd" isolation="isolate" opacity=".565" stroke-width="0"/><rect x="152.866" y="226.205" width="194.269" height="73.887" transform="translate(16.955 -15.127) rotate(3.587)" fill="#fff" stroke-width="0"/><path d="M178.837,1.057c10.841,23.252,20.11,44.619,24.457,56.141,17.753,0,52.894-1.885,53.417-1.885,8.798,9.636-3.561-17.701,2.461-21.891.628-.367,3.142-.524,7.437.628.786,5.865-1.309,17.23.681,21.21,2.566.628,4.923,1.571,9.531,1.309,1.047-2.147,5.028-7.07,8.013-15.187,2.566-4.923.524-15.292,6.442-16.078.838-.157,2.095.157,2.776,1.152-.419,6.442-10.631,30.794-10.631,30.794,0,0,5.918,1.257,11.207,2.304,1.885-1.519,7.489-10.003,11.207-14.768,1.99-.524,3.299.995,6.075,3.247.733.786-8.955,12.778-7.803,13.354,10.474,3.456,33.15,11.574,32.522,12.883,12.255-10.369,26.237-45.614,35.455-46.924,17.23,34.512,26.028,138.623,21,144.175,23.357,3.404,31.055-37.602,51.532-53.994,7.646,3.98.786,18.906,2.042,31.108,12.831-10.055,39.33-48.704,54.412-48.442,13.826,5.237-16.497,27.547-32.417,51.218,23.462-10.841,37.916-8.065,26.604,10.683,4.294,1.885,7.07,1.519,8.327,4.609-.838,24.614-39.382,32.627-30.898,30.898-28.28,51.742-92.276,40.325-90.443,41.529-7.908,34.721-43.467,77.874-68.5,85.206-5.97,3.875-18.644,39.644-37.759,12.307-57.398,5.446-83.844-5.551-115.581-24.3-1.1-2.723-40.168,18.172-32.784-16.497,12.935-18.225-4.923-9.06-22.781-85.939-56.298,19.796-51.427,68.814-58.026,65.829-4.137-.733-3.823-18.906-7.07-14.925-10.526,16.811-7.803,33.622-14.559,39.33-5.446-.838-7.698-35.978-11.783-37.916-4.085,7.698-12.412,2.88-11.05-7.698-2.671-49.228,26.185-107.725,103.169-93.69C112.431,103.388,142.492,32.793,178.837,1.057ZM294.365,62.225c.209-.262.367-.524.471-.786.471-1.257.314-1.309-.471-.262-.524.681-1.152,1.257-1.519,1.99-.419.89-.681,1.781-.786,2.723-.052.524.052.524.314.105.524-.89.995-1.885,1.466-2.985.157-.314.314-.576.524-.786h.001ZM286.771,263.536c2.409-1.676,4.609-3.509,6.599-5.551.524-.524,1.1-.524,1.623-.052,3.09,2.828,6.389,5.97,10.369,7.594,1.1.419,1.519.943,2.095,1.938.157.262.471.419.733.314,1.519-.367,2.88-.838,4.19-1.466,2.252-1.1,4.661-3.299,6.913-5.028,1.362-.995,3.561-3.404,6.546-7.175.105-.157.209-.157.367-.052,1.623,1.257,3.142,2.461,4.609,3.666,1.676,1.362,2.985,2.304,3.928,2.88,1.414.838,2.88,1.466,4.451,2.042.209.052.419.052.576-.105,1.833-1.571,3.352-3.247,4.609-4.975.524-.733,1.047-1.466,1.571-2.2.052-.105.052-.262-.052-.314,0,0-.052,0-.052-.052-1.257-.471-1.781-1.885-2.985-2.723-3.875-2.776-6.18-4.556-6.808-5.342-1.623-1.938-3.195-3.666-4.713-5.237-.628-.681-.89-1.205-1.938-1.257-1.309-.052-2.461.157-3.456.628-.157.052-.314.052-.471,0-.262-.157-.524-.105-.786.052-.471.314-1.205,1.1-1.571,1.676-1.414,2.2-2.933,4.242-4.451,6.127-1.152,1.414-2.304,2.671-3.456,3.718-1.257,1.152-2.461,2.409-3.561,3.718-.157.157-.419.209-.576.052-3.771-2.933-6.651-6.494-8.536-10.579-.262-.576-.786-.995-1.414-.576-.105.052-.209.052-.262-.052,0-.052-.052-.052-.052-.105.052-.576.052-1.1-.157-1.676-.105-.262-.367-.367-.576-.314-.105.052-.157.052-.209.157-.314.367-.576.576-.786.681-.471.209-.524.105-.262-.314.524-.786.628-1.519.314-2.095-.157-.262-.471-.314-.681-.209-.052.052-.105.052-.157.105-.681.838-1.519,1.362-2.514,1.571-.157.052-.314.105-.471.262-1.938,1.833-3.928,3.928-5.97,6.337-1.1,1.309-2.2,2.514-3.352,3.561-.157.105-.943,1.047-2.461,2.723-.786.838-1.676,1.728-2.671,2.566-.209.209-.314.157-.314-.157v-.471c0-.209-.105-.367-.262-.471-1.205-.995-2.461-1.99-3.666-2.985-1.309-1.047-3.195-2.985-5.551-5.761-.733-.89-1.466-1.938-2.042-3.142-.367-.733-.943-1.152-1.362-1.833-.628-1.047-1.309-1.99-1.99-2.776-.419-.471-.628-.419-.681.262,0,.314-.105.576-.262.786-.105.157-.105.314-.052.524.157.367.209.628.262.786.262.838,0,.995-.681.471-.314-.209-.524-.576-.733-1.047-.052-.157-.052-.314.052-.419l.105-.105c.157-.209.105-.314-.105-.419-.262-.105-.576-.105-.838-.052-.157,0-.262.105-.314.262-.052.052-.052.157-.105.209-.052.157-.105.314-.209.419-3.09,3.666-6.284,7.437-9.846,10.474-2.2,1.885-4.451,3.666-6.756,5.342-.105.052-.262.052-.367-.052-1.623-1.833-2.776-3.771-3.561-5.865-.105-.209-.209-.419-.419-.576-.995-.733-1.519-1.781-1.571-3.037,0-.157-.052-.314-.105-.419-.681-1.152-1.257-2.357-1.676-3.666-.419-1.1-1.257-1.781-1.047-3.037.052-.209-.052-.367-.209-.524l-.419-.314c-.262-.157-.314-.524-.105-.733l.157-.157c.367-.262.576-.524.628-.943,0-.262-.105-.419-.314-.524-.576-.262-1.1-.576-1.571-1.047-.105-.105-.262-.209-.419-.262l-2.042-.628c-.157-.052-.314-.052-.419.052-.681.314-1.205.681-1.676,1.047-5.132,4.347-10.683,8.851-16.654,13.511-.262.209-.524.157-.681-.105-1.623-2.619-3.404-5.342-5.342-8.013-2.461-3.352-4.451-6.86-6.127-10.526-.367-.838-.995-1.519-1.833-2.042l-.314-.314-.576-.995c-.105-.157-.262-.262-.471-.157-.628.209-1.152.105-1.676-.262-.262-.209-.367-.576-.681-.838-.157-.105-.314-.157-.471-.105-1.047.209-1.885.314-2.828.89-1.047.681-2.147,1.309-3.195,1.885-1.309.733-3.771,2.619-7.437,5.656-1.938,1.623-3.928,3.09-5.813,4.661-.367.314-.628.262-.89-.157-2.514-4.19-5.028-8.432-7.279-12.778-.838-1.676-1.833-3.299-2.88-4.818-.105-.105-.262-.157-.367-.052l-.052.052-.995,1.257c-.105.157-.262.157-.367,0-.262-.367-.419-.733-.419-1.152,0-.209-.209-.367-.367-.314h-.105c-.681.262-1.466.314-2.304.157-.262-.052-.524.105-.576.419v.052l-.105,1.309c-.052.524-.471.838-.995.838-.052,0-.157,0-.209-.052-.628-.209-.995,0-1.152.628-.052.209-.105.367-.157.576s-.209.314-.367.314c-.209.052-.367.157-.471.314-.105.157-.105.314-.052.471.628,1.362.419,2.723,1.152,3.98,3.299,5.761,5.656,9.898,7.07,12.464,1.205,2.147,3.666,6.284,5.865,7.175.786.314,1.519.733,2.252,1.362.157.105.262.157.471.105.367-.105.576-.314.681-.628.052-.157.157-.209.367-.157.419.157.681.262,1.152.052,4.975-2.2,9.846-4.923,14.716-8.117,1.362-.89,2.514-1.833,3.509-2.776.105-.105.209-.105.314.052,1.1,1.938,2.147,3.928,3.142,5.97,1.047,2.147,2.776,4.87,5.185,8.222,1.466,2.042,3.299,3.928,4.975,5.97.367.471.838.681,1.466.628.105,0,.209,0,.262-.052.209,0,.314.105.262.314l-.157.786c-.052.367.209.733.576.786.157.052.314,0,.471-.052,1.414-.786,2.828-1.519,4.19-2.2s2.723-1.414,4.085-2.252c3.299-1.99,6.599-4.032,9.898-6.075.367-.209.471-.524.314-.943-.052-.209,0-.209.157-.105.419.209.681.524.89.943,2.723,5.342,6.389,9.846,10.998,13.459.419.314.89.419,1.414.262.157-.052.314,0,.471.157.314.419.471.89.471,1.519,0,.262.209.471.471.471h.105c1.152-.367,2.252-.628,3.299-1.257,3.561-1.99,7.018-4.085,10.369-6.337,2.357-1.571,4.347-3.404,6.442-5.237.262-.262.471-.209.524.209.052.314.052.681.209.995,1.571,2.933,3.509,5.289,5.761,7.018,2.095,1.623,4.399,3.299,6.86,4.975.262.209.681.157.89-.052,1.205-1.1,2.147,0,3.299-.681,4.766-2.671,9.322-5.918,13.721-9.846.209-.209.262-.419.157-.681l-.052-.105c-.052-.105-.157-.157-.262-.105,0,0-.052,0-.052.052-1.257,1.1-2.514,2.2-3.771,3.299-.524.419-1.047.838-1.623,1.205-.576.367-1.205.786-1.781,1.257h-.052l-.105-.105c-.471-.314-.471-.367-.419-.367l-.002.002ZM377.476,246.253c-.052-.052-.157-.052-.209.052-.681.838-1.047,1.833-1.205,2.88,0,.052,0,.105.105.105h.105c.209-1.047.681-2.042,1.309-2.933v-.052l-.105-.052ZM197.061,282.074c.052-.262.052-.576-.105-.943-.314-.838-.628-1.519-.943-1.99-1.519-2.357-3.09-4.713-4.609-7.122-1.676-2.514-3.299-5.708-5.132-8.484-.209-.314-.628-.419-.943-.262-.628.314-1.309.471-2.042.367-.157,0-.314,0-.419.157-.471.419-.995.524-1.571.262-.157-.052-.314-.052-.471.052-1.728,1.047-3.509,2.042-5.132,3.299-2.619,2.042-5.132,3.875-7.489,5.551-1.309.943-2.252,2.252-3.404,3.456-.314.314-.314.838,0,1.152.419.419.681.89.786,1.466.157.733.838,1.205,1.519,1.047.786-.157,1.519-.262,2.304.157.733.367,1.623.314,2.619-.105,3.614-1.466,6.913-3.404,9.898-5.813.105-.105.314-.052.367.052l.052.052c.943,2.147,1.99,4.294,3.142,6.442,1.1,2.042,2.776,4.504,4.766,5.761.157.105.314.105.524.052.471-.209.89-.209,1.309-.052,1.414.524,2.776,1.152,3.98,1.885.209.105.419.157.628.105,2.252-.367,4.19-.943,5.761-1.728,3.09-1.519,6.808-3.614,11.26-6.284.209-.157.367-.314.419-.576,0-.157.105-.209.262-.209.471.105.786.314.89.786.733,2.776,2.933,5.394,4.818,7.541,2.252,2.619,5.394,4.766,8.274,6.756.89.628,1.781,1.047,2.566,1.205,3.247.681,6.075.419,8.536-.733,1.519-.733,3.771-2.252,6.703-4.504,2.095-1.623,4.19-3.352,6.18-5.185.105-.105.209-.052.314,0v.052c2.985,4.504,7.175,8.065,11.26,11.521.157.157.471.157.628-.052.052-.052.052-.105.105-.157.052-.105.105-.209.209-.262.209-.157.367-.052.367.209.105,1.152.733,1.571,1.833,1.205.262-.105.576.052.681.314l.628,1.309c.209.419.628.576,1.047.419,5.185-1.833,8.798-4.609,12.988-8.327,1.309-1.152,2.461-2.461,3.456-3.928.105-.157.209-.157.367-.052.995.943,1.885,1.938,3.037,2.723,2.619,1.833,5.185,3.614,7.698,5.289,1.309.89,2.619,1.414,3.875,1.519.576.052.89.367.995.943.157.838.628,1.1,1.414.89,1.152-.367,2.095-.419,3.142-1.205,4.242-3.299,8.222-6.808,12.045-10.579.105-.105.209-.262.209-.419l.157-.628c.052-.262.157-.262.314-.052,1.466,1.676,2.828,3.666,4.556,4.923,1.623,1.257,3.195,2.566,4.713,3.98.157.157.367.209.576.105.681-.314,1.414-.524,2.147-.628.89-.105,1.833-.471,2.828-1.1.157-.105.262-.262.314-.419.419-.995.105-2.042-.838-3.142-.471-.524-.367-.628.262-.314.157.052.471.262.995.628.209.157.524.105.681-.157v-.052c.105-.209.105-.419-.105-.628-3.352-3.509-6.703-6.965-10.107-10.369-1.257-1.257-2.619-2.252-4.19-2.88-.681-.262-1.466-.524-2.409-.681-2.828-.524-5.289,3.09-6.808,4.818-.838.943-1.728,1.833-2.723,2.776-2.095,1.938-4.294,3.823-6.494,5.761-.105.105-.262.105-.367-.052-.052-.052-.052-.105-.052-.209,0-.314.209-.576.524-.786.157-.105.209-.314.105-.471-.052-.052-.052-.105-.105-.105-2.252-1.571-4.661-2.88-6.651-4.661-1.781-1.571-3.614-3.247-5.446-4.923-.209-.209-.628-.314-1.152-.262-.209,0-.314.105-.314.367.052.524.314.838.786.943.838.157,1.99,1.205,2.514,1.833.786.89,1.676,1.466,2.461,2.357,1.152,1.257,2.776,1.99,4.085,3.09.628.576,1.414.995,2.304,1.362.105.052.105.105.105.157l-.052.157c-.052.052-.105.105-.157.052-1.833-.733-3.456-1.676-4.87-2.985-.471-.419-.995-.838-1.623-1.257-1.047-.681-1.676-1.623-2.566-2.357-.314-.314-.681-.576-1.047-.89-.262-.209-.786-.524-1.676-.943-.576-.314-1.1-.733-1.571-1.257-.052-.105-.052-.209.052-.314,0,0,.052-.052.105-.052.314-.052.471-.209.471-.471,0-.209-.052-.367-.262-.471-.157-.105-.314-.105-.471-.052-.157.052-.262.157-.314.314s-.105.262-.209.367c-.157.157-.314.209-.524.157l-1.519-.367c-.209-.052-.314.052-.262.262.052.105.105.157.209.209.157.105.209.209.105.419-.105.105-.209.209-.367.209-.105,0-.209,0-.367-.105-.209-.105-.367-.157-.576-.262-.262-.105-.367-.262-.209-.524.052-.157.052-.209-.105-.209s-.314,0-.471.052c-1.152.367-1.99.576-2.88,1.519-3.037,3.037-6.18,5.918-9.531,8.589-.209.157-.524.157-.733,0-.419-.367-.786-.681-1.1-.995-2.933-2.304-5.918-4.609-9.06-7.018-1.414-1.047-2.514-2.828-4.294-3.299-.524-.157-1.047-.314-1.466-.576-.262-.157-.314-.052-.209.209s.262.471.419.681c.052.052.052.209,0,.262,0,0-.052.052-.105.052-.105,0-.209,0-.314-.052-.681-.524-1.362-.576-1.99-.052-.157.105-.262.157-.471.209-1.205.157-1.362,1.362-2.828,1.362-.733,0-1.205.209-1.676.681-3.509,3.352-7.489,5.97-11.417,8.746-.157.105-.314.105-.419-.052-1.466-1.571-3.247-2.933-4.766-4.347-1.414-1.362-2.985-2.671-4.556-3.823-.367-.262-.733-.576-.995-.943-.314-.419-.681-.681-1.047-.89-.576-.314-1.1-.681-1.623-1.205-.786-.786-1.623-1.519-2.409-2.2-.157-.105-.157-.209-.052-.367.105-.105.209-.105.314-.052.576.367,1.205.995,1.938,1.781.471.471.995.943,1.571,1.362s.681.314.262-.262c-.838-1.152-1.938-2.147-3.299-3.09-.471-.314-.943-.105-1.519-.471-.786-.524-1.623-1.047-2.409-1.519-.157-.105-.314-.105-.471-.052-1.1.471-1.885.786-2.252,1.1-3.875,2.723-7.646,5.028-11.26,6.965-1.728.89-3.456,1.781-5.185,2.671-.157.052-.21,0-.157-.209l-.002-.003Z" fill="#9071bb" stroke-width="0"/><path d="M178.156,325.437c17.125,8.955,57.869,12.569,58.393,12.674-.367,33.517,4.032,38.597-22.048,41.006-4.923-7.227,3.456-24.771-4.504-24.981-9.479,8.589-5.865,38.073-23.619,30.689-3.456-.733-9.479-4.085-9.479-4.085l17.492-35.612s3.928-7.018-3.142-2.252c-9.741,5.394-22.624,20.843-32.522,22.467-7.384-6.023-12.15-16.811-12.15-16.811,0,0,18.277-12.778,31.579-23.095h0Z" fill="#9071bb" stroke-width="0"/><path d="M259.277,33.998c-.262,2.828-.262,5.028,0,6.651.262,1.885.524,3.823.786,5.865.209,1.728.367,3.666.419,5.865.052,1.938.105,3.98.209,6.127,0,.419.209.681.262,1.047.052.314-.157.628-.471.681-.157.052-.314,0-.419-.105-.995-.733-1.833-1.623-2.514-2.828-.157-.314-.471-.471-.838-.524-4.451-.209-8.641-.157-12.674.105-2.828.209-5.551.262-8.274.262-4.032-.052-7.751.105-11.26.471-4.242.419-7.908.681-11.05.838-.681.052-1.519.105-2.566.209-.786.105-1.623.157-2.514.157-.943,0-1.781.576-2.88.157-.157-.052-.314-.105-.524-.052-.471.052-.89-.052-1.257-.262-.105-.052-.209-.157-.262-.262l-.733-1.309c-.105-.209-.262-.209-.367,0-.105.157-.105.367-.105.524,0,.943-.209.995-.681.157-.419-.786-.89-1.414-1.257-2.2-.838-1.833-1.728-3.561-2.723-5.289-.052-.105-.105-.209-.105-.367v-.157c0-.105-.105-.157-.157-.262-.524-.419-.838-.943-.995-1.519s-.419-1.1-.733-1.571c-.681-.995-1.257-2.2-1.676-3.509-.628-1.885-1.781-3.404-2.566-5.185-1.885-4.19-4.294-9.898-7.332-17.02-1.205-2.828-2.147-5.185-2.828-7.122-.995-2.723-1.781-5.132-2.357-7.332-.314-1.047-.367-2.252-.262-3.666,0-.209-.052-.314-.262-.367s-.619-.153-1.1.314c-.681-.262-1.047-.786-1.152-1.466.733-.524,1.519-.838,2.409-.995.943-.157,1.781,0,2.461.471,1.047.681,1.885,1.676,2.514,2.88,1.519,2.828,2.828,5.604,3.928,8.222,1.466,3.352,2.985,6.389,4.19,9.741.733,2.095,1.571,4.137,2.514,6.18.262.576.367,1.205.419,1.781,0,.157.052.314.209.471.838,1.047,1.466,2.147,1.938,3.195.89,2.095,1.362,3.195,1.362,3.247.524,1.047,1.047,2.147,1.571,3.299.89,2.042,2.566,4.294,3.352,6.808.628,1.938,1.99,3.195,2.671,5.08.367.89.733,1.728,1.205,2.514.209.367.681.576,1.1.419,1.257-.367,2.514-.576,3.875-.628,4.661-.209,9.846-.209,15.502-.052.628,0,1.257.052,1.885.052,4.923.157,9.374.262,13.354.314.995,0,2.147.052,3.404.157.786.052,1.676.052,2.776,0,1.362-.052,2.985.052,4.87.367,1.205.209,2.461.052,3.718.157.262.052.471-.157.524-.419,0-.105,0-.157-.052-.209-.209-.524-.471-.89-.471-1.466.052-1.99,0-4.137-.262-6.389-.314-3.352-.471-6.86-.471-10.422,0-.157-.052-.314-.157-.471-.367-.419-.576-.838-.733-1.152-.105-.209-.052-.367.052-.524s.262-.157.419,0c.733.628,1.414.576,1.99-.157.105-.157.262-.209.419-.209.419-.105.681.157.733.681h0Z" fill="#422569" stroke-width="0"/><path d="M176.009,1.057c.512.479,1.337.819,1.205,1.466-.64,3.137-8.299,8.086-9.688,10.474-8.851,10.736-15.606,23.148-23.148,35.088-17.073,31.37-24.928,54.308-32.731,86.777-2.095,5.185-2.2,10.788-3.09,16.339,0,3.456-2.042,6.86-.681,10.055.681.157,5.97,2.566,2.514.105-.209-.105-.052-.314.157-.314,5.708,3.404,11.574,6.651,17.073,10.841,3.195,3.142,7.646,4.923,8.274,8.536-.052.314-.471.471-.733.314-6.18-3.928-12.883-8.693-19.586-12.255-8.955-4.87-17.911-7.541-28.018-8.327C34.976,157.591,2.193,199.487,3.868,246.149c-.943,4.032-.262,27.704,8.536,15.816,5.446-12.202,6.86-25.557,15.03-36.554,3.195-4.137,6.389-9.898,11.521-11.05,3.404,0-1.676,2.461-1.257,4.242-10.16,13.145-17.858,31.16-18.12,48.18-.314,6.494.733,26.447,6.075,30.06.314.262-.209.314-.367.314-.419-.052-.209.471,0,.524,3.404-.733,4.347-17.858,6.808-21.995,6.546-16.287,13.302-38.754,25.609-49.909.367.052.681.314.471.681l-2.776,4.347c-7.122,7.384-9.112,19.534-11.521,28.489-1.205,3.299.471,15.397,4.923,13.197,7.646-38.649,40.063-66.667,79.655-68.291.786-.209,6.389.786,4.19,1.833-1.781-.105-3.456.733-5.132.157-6.651,1.362-12.621,3.09-19.22,5.08-.524,6.808,2.461,14.611,3.666,21.21,3.352,18.12,12.988,34.145,22.362,49.594.209.314.419.314.681.105,2.304-2.2,4.923-3.98,7.803-5.394,3.09,1.152-3.928,4.87-4.975,6.023-25.242,29.327,5.604,41.477,28.07,19.01,1.309-.838.681.524,1.257.628,3.404.628-3.456,6.023-4.504,7.175,18.434,17.544,44.933,21.943,68.919,25.923,14.192.943,29.799,1.938,43.31-1.362-2.042-.681-2.619-21,1.1-14.454.209,9.898,4.451,27.232,17.544,24.09,11.94-4.451,13.669-15.921,18.801-25.399,2.409.157-.209,5.918,1.152,5.97,8.903-3.771,18.12-10.945,24.247-16.339,19.22-18.487,37.13-42.263,41.739-68.552-1.623-.209-16.654-5.08-8.379-5.918,4.294.943,8.222,2.566,12.464,3.299,13.093,1.938,27.547.786,40.325-3.195,18.906-5.342,36.973-20.32,46.452-35.245-11.679,2.2-17.177-7.594-8.117-15.292-5.813-.105-9.112-2.409-8.013-9.112,1.623-4.766,7.332-7.489,11.102-10.265,3.456-1.781,5.656-8.379,8.379-6.965-1.99,8.327-23.148,14.716-16.078,23.671,14.873,2.723,26.29-10.265,36.292-19.01,2.88-2.933,4.713-5.813,4.347-10.16-3.875-14.192-28.227,4.137-31.422,1.152,4.347-6.442,9.165-13.197,14.088-18.748,4.556-6.651,23.828-23.148,22.414-29.38-3.037-9.95-16.235,5.708-18.172,6.651-7.489,5.708-21.838,22.729-25.871,27.651-4.504,4.085-6.965,9.217-11.993,11.574-3.09,5.551-3.247,11.364-5.289,16.078-6.756,13.878-.681-5.237.262-9.008,1.938-8.327,3.404-16.287,4.347-23.776.995-3.561.471-19.743-5.237-12.569-15.711,18.068-22.833,57.974-53.156,51.48.262-1.257,3.404-1.362,4.451-1.362.209,0,.367-.105.367-.314.471-16.601.367-18.853-1.414-31.998-3.509-24.038-6.599-52.003-11.574-76.565-.262-9.427-4.347-19.115-6.703-28.07-.209-.786-.995-2.619-2.357-5.394-.628-.628-1.781.209-2.252.733-7.803,10.841-16.497,23.305-23.252,35.193-2.095,2.2-7.908,15.816-9.898,14.559-.262-.052-.367-.209-.262-.471.419-.89.576-1.781.471-2.723-.052-.262-.105-.314-.209-.052-.209.838-1.047,1.205-1.205,2.042-.052.262-.157.262-.314.105-.995-1.152,1.781-2.88.576-3.771-6.546-2.88-13.302-5.394-19.691-7.908-1.309-.786-4.032-.628-4.504-2.514,8.274,2.461,16.811,5.08,24.614,8.798,1.99-.105,2.985-3.404,4.242-4.713,1.728-2.566,4.294-5.813,6.075-8.955,4.294-5.865,23.409-43.101,30.06-30.165,8.955,25.923,13.773,70.281,17.806,96.308,1.938,13.354,3.195,30.846,2.357,44.2-.314,1.309,1.885.419,2.409.471,14.821-4.661,21.21-18.539,27.337-30.741,2.619-5.342,5.132-10.683,7.856-15.973,1.938-3.823,7.856-9.636,13.826-5.761,4.766,9.322,1.728,20.529-.419,30.008,2.304-3.352,5.97-6.442,8.693-9.741,11.26-12.412,20.896-26.237,35.193-35.559,8.536-6.965,21.262-1.571,13.197,9.636-9.898,13.407-22.624,23.671-31.946,37.235,1.414.314,4.399-2.304,6.232-2.828,6.442-2.776,14.611-4.818,20.372-1.152,3.875,3.352,5.551,11.207-.628,16.968,1.205-.314,2.304-.052,3.352.786,13.093,7.646-10.003,29.851-18.487,32.574-1.414.733-7.489,2.2-8.955,4.19-4.975,7.227-8.903,12.359-11.731,15.449-9.06,10.107-23.252,17.334-36.031,22.519-8.798,2.095-15.763,3.299-24.247,3.404-5.761.157-11.155-.262-17.125-.89-.471-.105-.943.157-1.152.576-7.751,25.976-19.691,51.375-41.791,68.762-8.746,9.165-20.005,14.611-30.375,21.262-3.456,7.279-9.165,14.873-17.125,17.177-.419.105-.733.524-.681.995.209,17.806-2.776,35.402-4.451,53.051-.314.995-.367,2.147.471,2.252l2.042-.733c7.803-2.776,20.267-2.409,20.162,8.693-3.666,1.885-4.504-9.741-17.753-6.337-.157.105,0,.524.262.471,3.404-.209,6.18-.367,8.851,1.571,2.985,2.147,6.023,5.499,6.18,8.955.524,4.347-3.247,3.09-3.456,2.619-2.566-6.337-7.175-10.422-13.826-10.003-.262.052-.262.105,0,.157.681.262,1.414.524,2.2.786,5.446,1.728,5.342,6.18,6.284,10.841.157.838.157,1.99-.419,2.776l-2.619-.052c-2.095-14.873-15.659-12.831-26.918-12.412.209-.838-.89-.628-1.414-.89,1.833-4.923,9.793-2.514,13.93-4.085,1.466-9.531,1.623-19.325,2.671-29.065.89-9.793,1.309-19.534,1.466-28.908-3.037-1.571-6.546-2.671-8.903-5.604-1.152-.89-1.205-2.409-1.99-3.142-2.042-.367-9.06.681-9.531.681-5.865.628-11.574.262-17.387.209-10.893.733-11.521-4.085-11.26,6.337-.576,9.374-.367,19.22-1.466,28.646-1.833,2.671-9.374,2.304-12.516,3.928-3.247.314-13.616,5.761-13.669-.314-.471-1.833,3.247-31.055.157-19.01-3.456,8.379-7.018,16.339-9.741,24.928-1.519,5.185-3.352,4.975-8.327,3.666-3.614-2.2-16.078-2.304-15.711-7.646,5.865.786,11.521,1.466,16.968,3.98.209.105.314.052.419-.157.471-1.047,1.519-1.047,2.095-2.042,5.08-11.521,22.205-64.31,18.958-19.639-1.676,22.467-2.828,13.616,18.539,9.112,1.152-10.369.943-21.891,1.519-32.26-19.482-2.88-39.487-5.289-57.136-14.192-9.636-5.394-10.526-5.865-18.853-11.993-1.1-2.147-5.394,1.833-7.646,2.2-7.646,2.828-14.821,1.938-21.995-.733-7.908,4.399-16.287,8.065-23.881,12.621-12.412,7.07-25.504,13.25-36.868,21.943-.209.157-.209.524,0,.681,2.514,1.781,4.661,2.723,5.918,5.97-.314,1.623-2.409,1.676-3.561.576-5.708-4.347-10.841-7.698-16.811-11.26-2.88-1.414-6.075-1.257-9.531.419-4.661,1.205-2.933-3.718-.314-4.766,3.823-1.99,10.369-.314,13.669-.052-11.102-9.846-13.407-1.728-18.801-3.666-1.047-1.362.628-2.566,1.676-3.142,6.808-4.294,17.073-2.776,20.32,5.289.209.471.471.471.681,0,2.042-4.609-3.718-7.489-7.175-9.008-.576-2.304,7.227-1.152,7.96.576,9.688,11.364-9.584,21,17.544,3.718,14.506-8.746,29.903-16.654,44.881-24.457.262-2.252-1.466-5.028-.786-7.698.628-6.651,2.828-12.621,6.546-18.015-5.604-8.746-13.616-20.686-16.339-30.27-5.446-12.935-9.008-26.342-10.736-40.273-.838-4.661-24.614,11.417-26.447,13.511-9.846,9.112-19.272,21.995-23.148,34.983-.314.419-1.466,14.559-7.594,14.035-4.818-2.985-5.918-9.322-6.337-14.559-4.766,6.075-7.751,20.058-9.898,29.484-1.1,7.489-4.085,14.402-10.212,5.761-5.342-11.05-6.494-21.472-6.86-34.093,0-.262-.052-.262-.209-.052-.157.471-.314,1.205-.367,1.309,0,0-1.152,2.723-3.299,4.032-7.908,1.99-8.903-14.297-8.955-14.349-7.856-82.483,60.749-104.531,99.922-95.575.786-.209,1.676.89,2.2.314.576-3.456,1.1-7.698,1.833-11.679,4.713-29.432,14.664-57.921,28.489-84.63,12.097-22.205,23.881-44.933,42.943-62.006v.002ZM481.745,192.679c8.013-3.299,24.928-18.068,18.434-27.494-1.205-1.1-3.823-2.933-5.289-1.466-6.546,6.599-15.554,12.778-23.828,17.02-5.656,1.781-8.327,2.985-10.265,8.851-3.142,11.312,15.659,5.446,20.948,3.09h0Z" fill="#422569" stroke-width="0"/><path d="M291.537,25.252l-.314.052c-.209.052-.314.157-.314.314-.105.681-.262,1.257-.471,1.781-.786,1.885-1.414,3.718-1.938,5.604-.471,1.781-1.047,3.666-1.781,5.604-1.623,4.451-3.09,8.851-4.713,13.197-.89,2.409-1.728,5.028-2.409,7.751-.052.157-.157.262-.262.367-.157.105-.367.157-.576.105-.209-.052-.314-.157-.367-.367l-.052-.209c-.052-.209-.157-.262-.367-.209-.157.052-.314.105-.471.209-.157.157-.209.314-.209.471l.157,1.257c0,.157-.052.262-.105.367-.052.052-.105.105-.209.105-.105.052-.209,0-.262-.052l-.209-.209c-.209-.262-.419-.209-.576.052l-.733,1.257c-.052.052-.105.105-.209.052-.052,0-.105-.105-.052-.157.052-.995.262-1.938.628-2.828.314-.733.419-1.885.419-3.509.262-.105.419-.209.471-.419.838-2.985,1.309-6.284,2.042-9.269.681-2.671,1.362-5.289,1.938-7.803.419-1.728,1.152-3.352,1.728-5.028.628-.419,2.357-8.955,2.357-8.955-.157-.89.367-1.152,1.676-.838.524.157,1.047.209,1.623.209,1.257.157,2.461.471,3.561,1.1v-.002Z" fill="#422569" stroke-width="0"/><path d="M307.457,44.786c-.995,1.519-1.99,3.037-2.985,4.451-.524.786-1.309,1.99-2.304,3.666-.995,1.728-2.252,3.299-3.195,4.975-.628,1.152-1.309,2.2-1.99,3.299-1.152,1.676-1.99,3.456-3.037,5.185-.105.157-.209.209-.367.157l-.157-.052c-.105-.052-.157-.105-.105-.209.576-1.047,1.1-2.147,1.676-3.247.209-.419.471-.838.786-1.152s.576-.681.89-.995c.157-.157.209-.314.209-.471,0-.209.052-.314.157-.419.157-.157.209-.314.209-.471v-.576c0-.209-.105-.262-.262-.105-.314.262-.628.576-.786.943-.105.209-.314.262-.524.157s-.367-.052-.524.157c-.105.157-.262.209-.419.052s-.262-.314-.314-.524l9.584-15.083c.209-.314.576-.471.943-.367l2.514.628h0Z" fill="#422569" stroke-width="0"/><path d="M276.297,56.412c-.052,0-.105.052-.105.262,0,.157-.052.262-.209.314-.419.262-.838.262-1.257.052-.157-.105-.314-.105-.524-.105-1.519.052-2.933-.524-4.294-.471-.733.052-1.519.052-2.304.052-.367,0-.524-.419-.419-1.205l9.112,1.1h0Z" fill="#422569" stroke-width="0"/><path d="M293.894,62.958c-.471,1.1-.943,2.042-1.466,2.985-.262.471-.367.419-.314-.105.052-.89.314-1.833.786-2.723.367-.733.995-1.309,1.519-1.99.786-1.047.943-.995.471.262-.105.262-.262.524-.471.786-.262.262-.419.524-.524.786h-.001Z" fill="#422569" stroke-width="0"/><path d="M195.228,228.657c.157-.052.367-.105.471-.052.209.052.209.157.052.314s-.314.209-.524.157c-.471-.052-.471-.209,0-.419h.001Z" fill="#9071bb" stroke-width="0"/><ellipse cx="233.28" cy="239.484" rx=".524" ry=".262" transform="translate(-96.014 181.712) rotate(-35.801)" fill="#9071bb" stroke-width="0"/><path d="M377.581,246.411c-.628.89-1.1,1.885-1.309,2.933h-.105c-.052,0-.105-.052-.105-.105.157-1.047.576-2.042,1.205-2.88.052-.052.105-.105.209-.052l.105.105q0-.035,0,0h0Z" fill="#422569" stroke-width="0"/><path d="M216.072,273.852c-.035,0-.052-.017-.052-.052h0c0-.419.209-.628.576-.786.209-.052.314,0,.419.105.105.157.105.314-.052.419-.209.157-.524.262-.89.314h-.001Z" fill="#9071bb" stroke-width="0"/><ellipse cx="251.935" cy="277.817" rx=".314" ry=".576" transform="translate(-41.181 43.859) rotate(-9.201)" fill="#9071bb" stroke-width="0"/><path d="M194.233,345.547l.105-.262c.052-.209,0-.262-.209-.157-5.656,3.666-11.155,7.751-16.497,12.202-4.609,3.875-9.584,7.122-14.14,11.626-.314.314-.681.524-1.1.628-.419.105-.838.209-1.205.314-.157.052-.314,0-.471-.105-.576-.471-1.309-.995-1.728-1.571-1.362-1.728-2.828-3.456-4.399-5.08-2.985-3.09-5.446-5.918-7.489-8.432-.786-.995-1.466-2.147-1.99-3.456-.052-.157-.052-.314,0-.471.262-.89.786-1.623,1.466-2.252,5.499,7.384,9.374,12.202,11.626,14.507,1.728,1.781,2.671.157,3.928-.786,2.514-1.885,5.028-3.666,7.489-5.446,5.865-4.137,11.731-8.379,17.649-12.726,2.723-1.99,5.97-4.032,9.741-6.18.105-.052.209,0,.262.052v.052c.052.157.052.314-.052.524-.524,1.571-1.362,3.666-2.461,6.284-.157.367-.314.628-.524.733v.002Z" fill="#422569" stroke-width="0"/><path d="M269.175,410.276c.314.105.576.157.838.209.419.052.628.262.524.681-.943-.262-1.414-.576-1.362-.89Z" fill="#422569" stroke-width="0"/><path d="M306.986,93.123c9.898-3.509,16.549-3.875,32.941-.576,31.893,8.851,41.11,43.467,37.392,71.537-4.137,59.021-72.794,59.859-118.252,56.403-54.046-2.409-117.204-29.484-104.321-93.585,5.132-40.22,52.37-61.901,87.72-43.153,40.849,20.948,16.287,28.856,64.52,9.374Z" fill="#ffdd9e" stroke-width="0"/><path d="M222.513,95.69c-3.037-.209-5.97.157-8.746,1.152-2.619.89-5.551,2.252-8.798,4.137-1.623.89-4.504-.838-5.08-2.147-.995-2.2-.576-4.19,1.257-5.97,3.247-3.142,7.227-5.342,11.836-6.546,4.085-1.047,8.432-1.205,13.093-.471,2.514.419,4.766,1.152,6.756,2.304,3.928,2.304,8.327,4.923,9.846,9.06.524,1.466-1.519,2.671-2.671,3.352-3.928,2.147-8.955-1.781-11.94-3.299-1.728-.89-3.561-1.414-5.551-1.571h-.002Z" fill="#422569" stroke-width="0"/><path d="M336.785,98.779c3.875,2.304,4.556,7.227-.105,9.112-.838.367-1.623.367-2.304-.052-1.571-.89-3.352-1.728-5.342-2.566-4.137-1.728-8.536-2.409-12.778-1.466-3.299.733-6.075,2.985-8.955,4.504-3.142,1.623-5.813,1.309-8.117-.943-.209-.209-.367-.471-.419-.733-.105-.367-.052-.681.052-.943.838-1.938,2.095-3.666,3.823-5.185,1.728-1.257,3.509-2.461,5.342-3.718,1.047-.733,2.2-1.257,3.456-1.676,5.08-1.728,10.16-2.042,15.187-1.047,3.928.733,7.279,2.304,10.16,4.713h0Z" fill="#422569" stroke-width="0"/><path d="M278.287,190.008c-3.247-1.519-6.599-2.828-10.055-3.98-1.1-.367-2.147-.733-3.142-1.257-1.047-.471-2.042-.943-3.09-1.414-2.2-.943-4.19-2.252-5.865-3.875.262-2.042,1.1-3.614,2.514-4.713,3.666-2.776,6.599-5.185,8.851-7.227.471-.419,1.205-.838,2.147-1.309,2.566-1.152,6.075.157,8.065,1.728.943.733,1.938,2.095,2.985,4.085,1.781,3.404,3.561,6.965,5.761,10.055,1.362,1.938,2.671,4.085,3.875,6.442.576,1.1,1.309,3.037.052,3.875-1.1.681-4.294-.262-5.551-.576-.628-.157-1.728-.471-3.195-1.047-1.152-.262-2.2-.576-3.352-.786h0Z" fill="#f35b61" stroke-width="0"/><path d="M256.135,179.482c1.676,1.623,3.666,2.933,5.865,3.875,1.047.471,2.095.943,3.09,1.414.995.471,2.095.89,3.142,1.257,3.509,1.1,6.86,2.409,10.055,3.98.576,4.504,1.205,8.851,1.781,12.935.367,2.461-.576,4.085-2.723,4.923-.943.367-1.885.052-2.671-.524-4.399-3.142-7.646-7.279-10.998-11.364-1.938-2.357-3.823-4.975-5.708-7.908-.89-1.362-1.833-2.985-2.147-4.504-.21-1.362-.105-2.723.314-4.085h0Z" fill="#b13c40" stroke-width="0"/><path d="M196.642,108.834c-.576.576-1.205.89-1.833.995-2.042-4.242-3.352-8.274-3.928-12.097-.105-.628.157-1.047.838-1.205.157-.052.314,0,.471.105.367.367.628.733.786,1.047,1.466,3.614,2.671,7.332,3.666,11.155Z" fill="#422569" stroke-width="0"/><path d="M190.987,112.239c-.733.367-1.309.786-1.833,1.362-.419.419-.838.838-1.362,1.257-.471.419-.89.89-1.205,1.414l-2.357.524c-.733-.681-1.362-1.362-2.147-1.99-2.88-2.252-5.342-4.609-7.437-7.122-.157-.209-.209-.471-.105-.733.157-.419.419-.628.786-.576.209.052.419.105.576.262,2.095,1.519,3.718,2.776,4.766,3.771,1.833,1.728,3.666,3.404,5.394,5.028.157.157.471.157.628,0l2.409-2.147c.105-.105.157-.262.105-.367-.052-.157-.209-.314-.419-.471l-.943-1.1c-.524-.786-1.1-1.571-1.728-2.252-.89-.995-1.466-1.781-1.781-2.2-1.047-1.623-1.885-3.352-2.514-5.185-.052-.209-.052-.367.052-.524.209-.314.419-.524.733-.576.209-.052.419,0,.576.209,2.409,3.037,4.504,5.813,6.232,8.327.524.733,1.1,1.781,1.571,3.09h.003Z" fill="#422569" stroke-width="0"/><path d="M346.316,116.428l-1.99-.524c1.205-3.771,2.671-7.332,4.347-10.579.209-.419.471-.786.786-1.1.209-.262.471-.262.733-.052.367.314.524.733.419,1.205-.943,3.98-2.357,7.646-4.294,11.05h-.001Z" fill="#422569" stroke-width="0"/><path d="M256.816,139.838c.628,5.708.838,9.479.628,11.312-.524,5.08-1.781,9.95-3.823,14.611-.262.628-.576,1.205-.943,1.833-.367.576-.733,1.152-1.1,1.676-.105.157-.157.314-.157.471,0,.105-.052.157-.105.262-.733,1.257-1.519,2.461-2.357,3.509-.733.943-1.623,1.676-2.409,2.566-1.309,1.414-2.461,2.409-3.823,3.561-.681.576-1.362,1.047-2.095,1.466-1.152.681-2.357,1.309-3.561,1.99-1.152.628-2.409,1.205-3.718,1.676-3.771,1.466-7.227,2.619-11.26,3.247-1.519.209-3.247.262-5.132.105-1.676-.157-3.404-.314-5.185-.524-5.185-.628-10.893-2.88-15.502-5.446-7.908-4.347-13.459-10.631-16.601-18.853-1.728-4.504-2.776-8.536-3.247-12.15-.943-7.122-.209-14.559,2.095-22.205.628-2.042,1.466-3.928,2.566-5.604,1.781-2.671,3.561-5.08,5.446-7.175.314-.524.733-.995,1.205-1.414s.943-.786,1.362-1.257c.524-.524,1.152-.995,1.833-1.362l3.875-2.409c.628-.052,1.205-.419,1.833-.995.943-.314,2.357-.786,4.242-1.519,3.771-1.414,8.222-2.2,13.354-2.357,5.604-.209,10.422.262,14.349,1.309,1.885.524,4.085,1.362,6.599,2.514,6.18,2.88,11.312,6.546,14.716,12.255,2.566,4.242,4.294,8.327,5.185,12.255.786,3.456,1.362,5.656,1.728,6.651h.002Z" fill="#fff" stroke-width="0"/><path d="M352.758,119.57c-.681-.262-1.466-.733-2.304-1.466l7.908-9.374c.105-.105.262-.209.419-.157.995.209.943,1.152.576,1.885-1.205,2.514-2.409,4.347-3.614,5.551-1.414,1.414-2.409,2.618-2.985,3.561Z" fill="#422569" stroke-width="0"/><path d="M344.326,115.957l1.99.524,4.137,1.676c.838.733,1.623,1.205,2.304,1.466l2.88,2.723c.262.628.786,1.205,1.571,1.676,2.042,2.357,3.195,4.609,5.08,6.808.314.367.576.838.786,1.362.89,2.461,1.728,4.766,2.514,6.913.262.681.419,1.362.471,2.147.052.628.157,1.257.314,1.833.524,4.137.628,7.594.367,10.474-.314,3.352-.733,6.389-1.309,9.165-1.047,5.132-3.247,9.846-6.442,14.088-2.776,3.666-5.446,6.337-9.479,8.432-1.676.89-3.404,1.781-5.132,2.723s-4.399,1.833-8.065,2.723c-11.102,2.671-21.472,1.414-31.16-3.823-7.751-4.19-13.773-11.05-16.392-19.534-.262-.786-.367-1.571-.471-2.357-.105-1.205-.209-1.99-.314-2.409-1.885-7.908-2.095-15.606.419-23.357,2.619-7.908,8.798-13.878,15.03-19.01,2.252-1.309,4.504-2.985,6.756-3.98,5.761-2.619,12.412-4.347,18.801-4.242,1.519.052,3.037.209,4.556.576,3.666.733,7.279,1.885,10.788,3.404h0Z" fill="#fff" stroke-width="0"/><path d="M357.209,123.917c-.733-.471-1.257-.995-1.571-1.676l9.793-7.227c.209-.157.524-.157.733,0,.419.262.524.576.314.943-.262.419-.628.838-1.1,1.309-2.2,2.147-4.085,3.771-5.656,4.818-1.205.786-2.042,1.414-2.514,1.833h.001Z" fill="#422569" stroke-width="0"/><path d="M186.535,116.219c-1.885,2.095-3.666,4.451-5.446,7.175-1.1,1.676-1.938,3.561-2.566,5.604-2.304,7.646-3.037,15.083-2.095,22.205.471,3.561,1.571,7.594,3.247,12.15,3.142,8.222,8.641,14.507,16.601,18.853,4.661,2.566,10.317,4.818,15.502,5.446,1.781.209,3.509.419,5.185.524,1.885.157,3.561.105,5.132-.105,4.032-.628,7.437-1.833,11.26-3.247,1.309-.471,2.514-1.047,3.718-1.676,1.257-.681,2.461-1.362,3.561-1.99.733-.419,1.414-.89,2.095-1.466,1.362-1.152,2.514-2.147,3.823-3.561.838-.89,1.676-1.623,2.409-2.566.838-1.047,1.623-2.2,2.357-3.509.052-.105.105-.157.105-.262,0-.157.105-.314.157-.471.367-.576.733-1.152,1.1-1.676.367-.576.681-1.205.943-1.833,1.99-4.661,3.247-9.531,3.823-14.611.209-1.833,0-5.604-.628-11.312,1.519,5.08,2.095,9.95,1.781,14.716-.105,1.676-.419,3.875-.89,6.546-.262,1.309-.681,2.723-1.257,4.137-.628,1.466-1.152,2.776-1.676,3.98-.524,1.257-1.728,3.037-3.614,5.394-.105.157-.157.314-.209.471-.052.314-.262.576-.524.786-.576.419-.733,1.1-1.257,1.571-1.205,1.1-2.461,2.2-3.718,3.299-.995.786-2.147,1.676-3.509,2.566-1.257.786-2.461,1.571-3.614,2.357-1.1.733-2.723,1.623-4.87,2.723-1.781.89-3.561,1.571-5.289,1.938-2.985.681-6.075,1.1-9.374,1.309-4.347.314-8.17.052-11.417-.786-4.661-1.205-8.065-2.357-10.107-3.456-2.304-1.257-4.661-2.514-7.122-3.823-5.656-2.985-9.688-8.641-12.569-14.192-2.147-4.19-2.985-8.746-3.928-13.407-.786-3.823-1.152-7.856-1.1-12.255,0-2.776.89-5.656,1.414-8.484,1.1-6.075,4.347-11.26,8.379-15.92.681-.786,1.309-1.623,1.938-2.514l2.252-.628h-.003Z" fill="#c7a35e" stroke-width="0"/><path d="M303.425,120.094c-6.232,5.132-12.412,11.102-15.03,19.01-2.566,7.751-2.304,15.449-.419,23.357.105.419.209,1.257.314,2.409.052.786.209,1.571.471,2.357,2.619,8.484,8.641,15.344,16.392,19.534,9.688,5.237,20.11,6.494,31.16,3.823,3.666-.89,6.337-1.781,8.065-2.723,1.728-.943,3.456-1.833,5.132-2.723,4.032-2.095,6.703-4.766,9.479-8.432,3.247-4.294,5.394-8.955,6.442-14.088.576-2.776.995-5.813,1.309-9.165.262-2.88.105-6.337-.367-10.474.419.157.733.681.838,1.571.524,3.928,1.362,8.013.786,12.097-.209,1.519-.419,3.037-.628,4.451-.576,3.98-1.519,7.489-2.88,10.526-2.671,5.97-6.703,10.893-12.097,14.716-2.619,1.885-5.446,3.509-8.432,4.975-2.566,1.257-4.766,2.042-6.546,2.357-2.828.524-5.656,1.205-8.536,1.362-10.107.576-20.529-1.1-28.385-7.279-4.661-3.666-9.793-8.432-12.15-13.93-.628-1.414-1.152-2.88-1.676-4.399-.471-1.414-.786-2.933-.943-4.504-.471-4.923-1.571-9.531-1.571-14.507,0-5.656,1.414-11.207,4.294-16.601,3.09-5.813,9.112-10.893,14.664-14.192.105-.052.209-.052.314.052.052.209.052.314,0,.419h0Z" fill="#c7a35e" stroke-width="0"/><path d="M221.99,161.833c-2.776,1.152-5.551,1.466-8.274.995-5.97-1.1-10.526-4.19-13.669-9.479-4.085-6.913-2.88-14.873,1.99-21.053,2.147-2.723,4.975-4.504,8.379-5.342,1.257-.314,2.723-.524,4.399-.628,5.132-.367,10.369,1.833,14.035,5.289,1.362,1.257,2.304,2.618,2.88,4.085.995,2.619,1.623,4.923,1.833,7.018.419,4.294-.628,8.274-3.09,12.045-1.152,1.728-2.88,3.299-4.451,4.818-.681.681-2.042,1.466-4.032,2.252ZM216.334,142.823c-1.257-1.781-3.718-2.147-5.499-.838-1.781,1.257-2.2,3.771-.943,5.499,1.257,1.781,3.718,2.147,5.499.838,1.781-1.257,2.2-3.718.943-5.499h0Z" fill="#422569" stroke-width="0"/><path d="M318.193,170.16c-2.619-1.152-4.399-2.776-6.494-5.342-.995-1.205-1.676-2.357-2.147-3.404-2.671-6.127-2.095-14.507,2.042-19.796,2.147-2.776,4.923-4.818,8.17-6.127,4.347-1.728,9.793-2.514,13.721-.419,1.623.89,3.614,1.623,4.87,2.828,3.247,3.142,5.185,6.86,5.761,11.207.262,1.833,0,3.875-.209,5.813-.419,3.875-1.99,7.332-4.451,10.422-2.042,2.514-5.185,4.242-8.065,5.551-.733.314-1.466.524-2.252.576-3.875.419-7.227.314-10.945-1.309h0ZM324.478,156.648c2.042.052,3.771-1.676,3.823-3.928s-1.571-4.085-3.614-4.137-3.771,1.676-3.823,3.928,1.571,4.085,3.614,4.137Z" fill="#422569" stroke-width="0"/></svg>